<svg id="Capa_1" data-name="Capa 1" xmlns="http://www.w3.org/2000/svg" xmlns:xlink="http://www.w3.org/1999/xlink" viewBox="0 0 488 768"><defs><style>.cls-1{fill:url(#Degradado_sin_nombre_9);}.cls-11,.cls-12,.cls-14,.cls-15,.cls-18,.cls-19,.cls-2,.cls-20,.cls-21,.cls-3,.cls-7,.cls-8,.cls-9{opacity:0.1;}.cls-2{fill:url(#Degradado_sin_nombre_9-2);}.cls-3{fill:url(#Degradado_sin_nombre_9-3);}.cls-4{fill:url(#Degradado_sin_nombre_9-4);}.cls-5{fill:url(#Degradado_sin_nombre_9-5);}.cls-6{fill:url(#Degradado_sin_nombre_9-6);}.cls-7{fill:url(#Degradado_sin_nombre_9-7);}.cls-8{fill:url(#Degradado_sin_nombre_9-8);}.cls-9{fill:url(#Degradado_sin_nombre_9-9);}.cls-10{fill:url(#Degradado_sin_nombre_9-10);}.cls-11{fill:url(#Degradado_sin_nombre_9-11);}.cls-12{fill:url(#Degradado_sin_nombre_9-12);}.cls-13{fill:url(#Degradado_sin_nombre_9-13);}.cls-14{fill:url(#Degradado_sin_nombre_9-14);}.cls-15{fill:url(#Degradado_sin_nombre_9-15);}.cls-16{fill:url(#Degradado_sin_nombre_9-16);}.cls-17{fill:url(#Degradado_sin_nombre_9-17);}.cls-18{fill:url(#Degradado_sin_nombre_9-18);}.cls-19{fill:url(#Degradado_sin_nombre_9-19);}.cls-20{fill:url(#Degradado_sin_nombre_9-20);}.cls-21{fill:url(#Degradado_sin_nombre_9-21);}</style><linearGradient id="Degradado_sin_nombre_9" x1="51.51" y1="620.06" x2="113.86" y2="694.36" gradientTransform="matrix(0.45, -0.77, 0.54, 0.64, -321.6, 282.37)" gradientUnits="userSpaceOnUse"><stop offset="0" stop-color="#19f7ad"/><stop offset="1" stop-color="#00df96"/></linearGradient><linearGradient id="Degradado_sin_nombre_9-2" x1="19.51" y1="620.06" x2="81.86" y2="694.36" gradientTransform="matrix(0.21, -0.77, 0.25, 0.64, -142.44, 248.36)" xlink:href="#Degradado_sin_nombre_9"/><linearGradient id="Degradado_sin_nombre_9-3" x1="92.21" y1="681.51" x2="193.19" y2="681.51" gradientTransform="matrix(0.45, -0.77, 0.54, 0.64, -312.7, 324)" xlink:href="#Degradado_sin_nombre_9"/><linearGradient id="Degradado_sin_nombre_9-4" x1="271.61" y1="244.8" x2="333.96" y2="319.11" gradientTransform="matrix(0.45, -0.77, 0.54, 0.64, 28.98, 350.18)" xlink:href="#Degradado_sin_nombre_9"/><linearGradient id="Degradado_sin_nombre_9-5" x1="119.56" y1="133.03" x2="181.91" y2="207.34" gradientTransform="matrix(0.45, -0.77, 0.54, 0.64, 40.81, 235.55)" xlink:href="#Degradado_sin_nombre_9"/><linearGradient id="Degradado_sin_nombre_9-6" x1="151.45" y1="23.61" x2="213.8" y2="97.91" gradientTransform="matrix(0.45, -0.77, 0.54, 0.64, 129.3, 235.32)" xlink:href="#Degradado_sin_nombre_9"/><linearGradient id="Degradado_sin_nombre_9-7" x1="127.91" y1="111.68" x2="190.26" y2="185.99" gradientTransform="matrix(0.21, -0.77, 0.25, 0.64, 208.14, 316.17)" xlink:href="#Degradado_sin_nombre_9"/><linearGradient id="Degradado_sin_nombre_9-8" x1="312.3" y1="306.25" x2="413.29" y2="306.25" gradientTransform="matrix(0.45, -0.77, 0.54, 0.64, 37.88, 391.81)" xlink:href="#Degradado_sin_nombre_9"/><linearGradient id="Degradado_sin_nombre_9-9" x1="362.56" y1="101.96" x2="463.55" y2="101.96" gradientTransform="matrix(0.45, -0.77, 0.54, 0.64, 199.13, 385.63)" xlink:href="#Degradado_sin_nombre_9"/><linearGradient id="Degradado_sin_nombre_9-10" x1="170.66" y1="404.97" x2="233.01" y2="479.28" gradientTransform="matrix(0.45, -0.77, 0.54, 0.64, -123.64, 316.9)" xlink:href="#Degradado_sin_nombre_9"/><linearGradient id="Degradado_sin_nombre_9-11" x1="71.19" y1="324.56" x2="133.54" y2="398.87" gradientTransform="matrix(0.21, -0.77, 0.25, 0.64, 55.52, 282.88)" xlink:href="#Degradado_sin_nombre_9"/><linearGradient id="Degradado_sin_nombre_9-12" x1="211.35" y1="466.42" x2="312.34" y2="466.42" gradientTransform="matrix(0.45, -0.77, 0.54, 0.64, -114.74, 358.52)" xlink:href="#Degradado_sin_nombre_9"/><linearGradient id="Degradado_sin_nombre_9-13" x1="386.07" y1="670.92" x2="448.42" y2="745.23" gradientTransform="matrix(0.45, -0.77, 0.54, 0.64, -214.07, 498.96)" xlink:href="#Degradado_sin_nombre_9"/><linearGradient id="Degradado_sin_nombre_9-14" x1="548.42" y1="902.54" x2="610.77" y2="976.85" gradientTransform="matrix(0.21, -0.77, 0.25, 0.64, -34.91, 464.95)" xlink:href="#Degradado_sin_nombre_9"/><linearGradient id="Degradado_sin_nombre_9-15" x1="426.76" y1="732.38" x2="527.75" y2="732.38" gradientTransform="matrix(0.45, -0.77, 0.54, 0.64, -205.17, 540.59)" xlink:href="#Degradado_sin_nombre_9"/><linearGradient id="Degradado_sin_nombre_9-16" x1="214.27" y1="31.11" x2="276.62" y2="105.42" gradientTransform="matrix(0.74, -0.77, 0.88, 0.64, 71.8, 292.04)" xlink:href="#Degradado_sin_nombre_9"/><linearGradient id="Degradado_sin_nombre_9-17" x1="0.36" y1="211.22" x2="62.71" y2="285.53" gradientTransform="matrix(0.45, -0.77, 0.54, 0.64, -63.44, 175.98)" xlink:href="#Degradado_sin_nombre_9"/><linearGradient id="Degradado_sin_nombre_9-18" x1="-296.42" y1="-104.33" x2="-234.07" y2="-30.02" gradientTransform="matrix(0.21, -0.77, 0.25, 0.64, 115.71, 141.97)" xlink:href="#Degradado_sin_nombre_9"/><linearGradient id="Degradado_sin_nombre_9-19" x1="41.06" y1="272.68" x2="142.04" y2="272.68" gradientTransform="matrix(0.45, -0.77, 0.54, 0.64, -54.55, 217.61)" xlink:href="#Degradado_sin_nombre_9"/><linearGradient id="Degradado_sin_nombre_9-20" x1="-69.98" y1="44.62" x2="31.01" y2="44.62" gradientTransform="matrix(0.45, -0.77, 0.54, 0.64, 54.35, 107.14)" xlink:href="#Degradado_sin_nombre_9"/><linearGradient id="Degradado_sin_nombre_9-21" x1="3.61" y1="-188.56" x2="65.96" y2="-114.25" gradientTransform="matrix(0.21, -0.77, 0.25, 0.64, 318.55, 274.94)" xlink:href="#Degradado_sin_nombre_9"/></defs><title>Mesa de trabajo 5</title><rect class="cls-1" x="35.41" y="638.85" width="68.15" height="5.25" rx="2.62" ry="2.62" transform="translate(516.22 175.92) rotate(50)"/><rect class="cls-2" x="13.95" y="629.35" width="31.12" height="5.25" rx="2.62" ry="2.62" transform="translate(494.66 203.14) rotate(50)"/><rect class="cls-3" x="65.06" y="647.2" width="107.01" height="11.1" rx="5.55" ry="5.55" transform="translate(542.39 142.34) rotate(50)"/><rect class="cls-4" x="283.41" y="296.85" width="68.15" height="5.25" rx="2.62" ry="2.62" transform="translate(342.82 -136.23) rotate(50)"/><rect class="cls-5" x="166.41" y="226.85" width="68.15" height="5.25" rx="2.62" ry="2.62" transform="translate(247.41 -71.61) rotate(50)"/><rect class="cls-6" x="210.41" y="131.85" width="68.15" height="5.25" rx="2.62" ry="2.62" transform="translate(190.35 -139.25) rotate(50)"/><rect class="cls-7" x="261.95" y="287.35" width="31.12" height="5.25" rx="2.62" ry="2.62" transform="matrix(0.64, 0.77, -0.77, 0.64, 321.27, -109)"/><rect class="cls-8" x="313.06" y="305.2" width="107.01" height="11.1" rx="5.55" ry="5.55" transform="translate(368.99 -169.8) rotate(50)"/><rect class="cls-9" x="387.06" y="129.2" width="107.01" height="11.1" rx="5.55" ry="5.55" transform="translate(260.6 -289.36) rotate(50)"/><rect class="cls-10" x="171.41" y="443.85" width="68.15" height="5.25" rx="2.62" ry="2.62" transform="translate(415.42 2.08) rotate(50)"/><rect class="cls-11" x="149.95" y="434.35" width="31.12" height="5.25" rx="2.62" ry="2.62" transform="translate(393.87 29.3) rotate(50)"/><rect class="cls-12" x="201.06" y="452.2" width="107.01" height="11.1" rx="5.55" ry="5.55" transform="translate(441.59 -31.5) rotate(50)"/><rect class="cls-13" x="321.41" y="631.85" width="68.15" height="5.25" rx="2.62" ry="2.62" transform="translate(613.02 -45.67) rotate(50)"/><rect class="cls-14" x="299.95" y="622.35" width="31.12" height="5.25" rx="2.62" ry="2.62" transform="translate(591.46 -18.45) rotate(50)"/><rect class="cls-15" x="351.06" y="640.2" width="107.01" height="11.1" rx="5.55" ry="5.55" transform="translate(639.19 -79.25) rotate(50)"/><rect class="cls-16" x="256.75" y="145.28" width="111.04" height="5.25" rx="2.62" ry="2.62" transform="translate(224.84 -186.38) rotate(50)"/><rect class="cls-17" x="50.41" y="308.85" width="68.15" height="5.25" rx="2.62" ry="2.62" transform="matrix(0.64, 0.77, -0.77, 0.64, 268.78, 46.54)"/><rect class="cls-18" x="28.95" y="299.35" width="31.12" height="5.25" rx="2.62" ry="2.62" transform="translate(247.23 73.77) rotate(50)"/><rect class="cls-19" x="80.06" y="317.2" width="107.01" height="11.1" rx="5.55" ry="5.55" transform="translate(294.95 12.97) rotate(50)"/><rect class="cls-20" x="16.06" y="145.2" width="107.01" height="11.1" rx="5.55" ry="5.55" transform="translate(140.33 0.56) rotate(50)"/><rect class="cls-21" x="272.95" y="148.35" width="31.12" height="5.25" rx="2.62" ry="2.62" transform="translate(218.71 -167.08) rotate(50)"/></svg>