<svg id="Capa_1" data-name="Capa 1" xmlns="http://www.w3.org/2000/svg" xmlns:xlink="http://www.w3.org/1999/xlink" viewBox="0 0 279 123"><defs><style>.cls-1{fill:none;}.cls-2{clip-path:url(#clip-path);}.cls-3{fill:url(#Degradado_sin_nombre_9);}.cls-4{fill:url(#Degradado_sin_nombre_9-2);}</style><clipPath id="clip-path"><rect class="cls-1" x="-1386" width="1366" height="768"/></clipPath><linearGradient id="Degradado_sin_nombre_9" x1="-637" y1="266.41" x2="92.1" y2="266.41" gradientUnits="userSpaceOnUse"><stop offset="0" stop-color="#19f7ad"/><stop offset="1" stop-color="#00df96"/></linearGradient><linearGradient id="Degradado_sin_nombre_9-2" x1="0" y1="61.47" x2="279" y2="61.47" xlink:href="#Degradado_sin_nombre_9"/></defs><title>Mesa de trabajo 3</title><g class="cls-2"><path class="cls-3" d="M-468.86-174-607.64,340.67A289.11,289.11,0,0,0-598.9,519H-586a2,2,0,0,1,2,2,2,2,0,0,1-2,2h-11.33q2.2,5.55,4.62,11H-633.5a3.5,3.5,0,0,0-3.5,3.5,3.5,3.5,0,0,0,3.5,3.5h44q1,2,1.93,4H-616.5a1.5,1.5,0,0,0-1.5,1.5,1.5,1.5,0,0,0,1.5,1.5h30.45q4.14,8.13,8.77,16H-470.5a7.5,7.5,0,0,1,7.5,7.5,7.5,7.5,0,0,1-7.5,7.5h-97.32a289.37,289.37,0,0,0,165,117.78h0c154.91,41.77,314.34-49.95,356.11-204.86L92.1-22.79Z"/></g><path class="cls-4" d="M0,57.93s55.56,65,122.95,65,113.49-65,113.49-65L279,0H0Z"/></svg>