<svg id="Capa_1" data-name="Capa 1" xmlns="http://www.w3.org/2000/svg" xmlns:xlink="http://www.w3.org/1999/xlink" viewBox="0 0 617 707"><defs><style>.cls-1{fill:url(#Degradado_sin_nombre_9);}.cls-2{fill:gray;opacity:0.2;}.cls-3{fill:#e8d0c3;}.cls-4{fill:#451614;}.cls-5{fill:#622020;}.cls-6{fill:#8c6d3f;}.cls-7{fill:#312837;}.cls-8{fill:#6c4c31;}.cls-9{fill:#9f7f4a;}.cls-10{fill:#917241;}.cls-11{fill:#a98552;}.cls-12{fill:#e39880;}.cls-13{fill:#fff;}.cls-14{fill:#a64a4a;}.cls-15{fill:#d0b1a6;}.cls-16{fill:#211c26;}.cls-17{fill:#ebb1bb;}.cls-18{fill:#de8080;}.cls-19{fill:#6f4f7f;}.cls-20{fill:#4e345d;}.cls-21{fill:#f4d7de;}.cls-22{fill:#2e2436;}.cls-23{fill:#e6c3b3;}.cls-24{fill:#2b1c16;}.cls-25{fill:#201612;}.cls-26{fill:#d9d9d9;}.cls-27{fill:#f3d5c5;}.cls-28{fill:#311414;}.cls-29{fill:#b59b83;}.cls-30{fill:#977355;}.cls-31{fill:#b8b8b8;}.cls-32{fill:#e5bd4a;}.cls-33{fill:#efcc58;}.cls-34{fill:#56331e;}.cls-35{fill:#3e2317;}.cls-36{opacity:0.7;}.cls-37{fill:#3b2821;}.cls-38{fill:#543e39;}.cls-39{fill:#394042;}.cls-40{fill:#b98a7a;}.cls-41{fill:#c69687;}.cls-42{fill:#8f5b4a;}.cls-43{fill:#cdcdcd;}.cls-44{fill:#202728;}.cls-45{fill:#932714;}.cls-46{fill:#4f7b74;}.cls-47{fill:#42635d;}.cls-48{fill:#a62f1e;}.cls-49{fill:#344d47;}.cls-50{fill:#643a27;}.cls-51{fill:#d5b4fb;}.cls-52{fill:#dcbbab;}.cls-53{fill:none;}.cls-54{fill:#bababa;}.cls-55{fill:#eff9ff;}.cls-56{fill:#c19df3;}.cls-57{fill:#dfcafc;}.cls-58{fill:#5e3f70;}</style><linearGradient id="Degradado_sin_nombre_9" y1="352.92" x2="618.17" y2="352.92" gradientUnits="userSpaceOnUse"><stop offset="0" stop-color="#19f7ad"/><stop offset="1" stop-color="#00df96"/></linearGradient></defs><title>Mesa de trabajo 4</title><path class="cls-1" d="M617,0l1.17,388.65L590.32,491.92A289.13,289.13,0,0,1,504.45,632h24a6.5,6.5,0,0,1,0,13H489a290.06,290.06,0,0,1-254.76,51.78h0A289.37,289.37,0,0,1,69.18,579H166.5a7.5,7.5,0,0,0,0-15H59.72q-4.64-7.86-8.77-16H20.5a1.5,1.5,0,0,1,0-3H49.45q-1-2-1.93-4H3.5a3.5,3.5,0,0,1,0-7H44.29q-2.42-5.45-4.62-11H51a2,2,0,0,0,0-4H38.1a289.11,289.11,0,0,1-8.75-178.33L108.81,46H69a5,5,0,0,1,0-10h42.5l1.62-6H94.5a2.5,2.5,0,0,1,0-5h20l7-26Z"/><ellipse class="cls-2" cx="160.5" cy="523.93" rx="52.5" ry="13.93"/><ellipse class="cls-2" cx="506.5" cy="523.93" rx="52.5" ry="13.93"/><ellipse class="cls-2" cx="276.5" cy="504.93" rx="40.5" ry="13.93"/><ellipse class="cls-2" cx="386.5" cy="506.93" rx="49.5" ry="13.93"/><path class="cls-3" d="M265.05,502.75c.48.59.63,1.33,1,1.86,1.94-.51,3.79-1.9,5.58-2.81a22,22,0,0,0,2.92-1.71c-.05-.9-.18-1.84-.2-2.58q-.05-2.32-.3-4.63t-.5-4.42c-.08-.8-.06-2.55-.6-3.08l-7.81,2.25c.53,2.68,1.06,5.35,1.45,8a2.36,2.36,0,0,1-.89,2.44,23.58,23.58,0,0,1-2.65,1.87c-.55.37-1.1.76-1.65,1.15a5.39,5.39,0,0,1,1.14.27A6.19,6.19,0,0,1,265.05,502.75Z"/><path class="cls-4" d="M271.68,501.8c-1.8.91-3.65,2.3-5.58,2.81-.42-.53-.57-1.26-1-1.86a6.19,6.19,0,0,0-2.45-1.36,5.39,5.39,0,0,0-1.14-.27c-1.51,1.07-3,2.18-4.64,3.16-1.06.69-4.78,2.52-4.14,4.39s4.12.78,5.25.56a43.09,43.09,0,0,0,7.08-2.17c1.93-.85,3.65-2,5.58-2.88,1.13-.5,3.6-1.22,3.91-2.3a6.22,6.22,0,0,0,.1-1.78A22,22,0,0,1,271.68,501.8Z"/><path class="cls-5" d="M261,502.71c-1.12,1-2.92,1.74-4.17,2.71-.73.55-2,1.39-.83,1.83a3.84,3.84,0,0,0,1.94-.31,18,18,0,0,0,4.19-1.77c.8-.42,1.87-.38,1.59-1.24-.22-.67-1.5-1-2-1.43v-.07Z"/><path class="cls-3" d="M285.88,502.29c-.46.61-.57,1.36-1,1.9-2-.43-3.87-1.73-5.7-2.56a22,22,0,0,1-3-1.58c0-.9.1-1.85.08-2.59q-.05-2.32.1-4.64t.3-4.44c0-.81-.06-2.55.47-3.1l7.9,1.91c-.41,2.7-.82,5.39-1.1,8.09a2.36,2.36,0,0,0,1,2.4,23.55,23.55,0,0,0,2.73,1.75c.57.35,1.13.71,1.7,1.08a5.3,5.3,0,0,0-1.13.32A6.2,6.2,0,0,0,285.88,502.29Z"/><path class="cls-4" d="M279.21,501.63c1.83.83,3.74,2.13,5.7,2.56.39-.55.51-1.29,1-1.9a6.2,6.2,0,0,1,2.39-1.46,5.3,5.3,0,0,1,1.13-.32c1.55,1,3.13,2,4.77,2.95,1.09.65,4.89,2.31,4.33,4.2s-4.08,1-5.22.79a43.09,43.09,0,0,1-7.16-1.86c-2-.76-3.74-1.8-5.7-2.63-1.15-.45-3.65-1.06-4-2.13a6.12,6.12,0,0,1-.18-1.78A22,22,0,0,0,279.21,501.63Z"/><path class="cls-5" d="M290,502.07c1.16.91,3,1.61,4.25,2.53.75.52,2,1.3.9,1.79a3.87,3.87,0,0,1-2-.22,18.08,18.08,0,0,1-4.27-1.59c-.82-.38-1.82-.29-1.57-1.17.19-.68.91-1.11,2-1.52v-.07Z"/><path class="cls-6" d="M295.18,131c-5.93-6.58,1.53-15.14,9-16.05,9.67-1.15,17.72,8.56,13.44,17.61-3.2,7.16-9.72,7.3-16.28,6Z"/><path class="cls-7" d="M315,136.17c2.29,3.33,4.65,6.6,7.13,9.78.45.58,1.25-.23.81-.81-2.42-3.11-4.72-6.3-7-9.55-.41-.6-1.4,0-1,.58Z"/><path class="cls-7" d="M294.09,104.11c2.67,4.94,5.94,9.51,9.08,14.16.41.61,1.4,0,1-.58-3.14-4.65-6.41-9.22-9.08-14.16-.35-.65-1.33-.07-1,.58Z"/><path class="cls-8" d="M304.56,116.66a2.22,2.22,0,0,1,.07.22,1.5,1.5,0,0,1,.06.58,2.66,2.66,0,0,1-.16.82,4.19,4.19,0,0,1-.39.83,4.68,4.68,0,0,1-.57.7,3.17,3.17,0,0,1-.62.5,2.47,2.47,0,0,1-.73.33,4.4,4.4,0,0,1,.23-.76,8.61,8.61,0,0,1,.73-1.38c.14-.23.31-.46.45-.66l.43-.55c.14-.15.25-.33.34-.44Z"/><path class="cls-3" d="M263.87,136.66a18.81,18.81,0,0,0-2.42,1.66c-3.17,2.59-4.41,7.66-5.21,11.47a59.29,59.29,0,0,0-.33,19c-9.94-2.58-9,16,2.2,15.24.86,5,2.26,9.46,5.88,13.11,1.91,1.82,4,3.83,6.45,4.71,1.5.53,7,2.62,7,2.62.62,1.64.53,11.2.53,11.2,1.15,1.28,4.31,1,5.8.8,2.79-.43,3.2,1.23,3.52-1.2.5-2.81.19-8.4.13-11.19,6.18-1.41,10.6-1.35,15-5.93,3.47-3.43,5.75-10,6-15.24a11.36,11.36,0,0,0,9.32-8.6c.67-3.37-2.27-9.26-6.89-6.92-.22-4,.28-4.87-.55-8.77-1-3.52-1.46-7.05-2.84-10.57-2-4.81-4.48-8.67-8.84-11.74s-9.22-2.94-14.32-3.49a36.66,36.66,0,0,0-10.1.14A32.32,32.32,0,0,0,263.87,136.66Z"/><path class="cls-9" d="M251.69,146.55a47.79,47.79,0,0,0-.62,14.38c.45,3.53,5.53,14.05,6.66,6,.46-4.49-.59-10.06,1-14.38,1.94-5.08,15-4.62,19.65-5.28,7.07-.9,16.52-3.72,21.06-9.42.44,3,.12,5.59,1.49,8.55,1.38,3.14,3.86,5.7,5.41,8.65,2.53,4.61,2.1,10.59,4.8,14.82,9.37-6.55,6.08-20.28,1.79-28.76-1.18-2.59-2.35-5.17-5-6.23-.75-.36-2.24-.14-2.81-.5-1.13-.72-.78-1.66-1.55-2.76-1.93-3.13-7-5.44-11-6.29-4.31-1-9.9-.71-14.36.13C274,126.28,254.7,130.74,251.69,146.55Z"/><path class="cls-10" d="M305,135.67c-.54.94-3.13,1.93-3.28,3.43-.16,1.31,2.72,5.16,3.31,6.45.6,1.67,1.41,5,3.83,4.58.52-2.06-.64-3.72-1.43-5.75,1.15,1.28,1.74,2.95,3.62,3.28,0-1.86-1-3.34-1.79-5,.78,1.66,1.76,3.69,3.63,3.84.86-3.38-5-8.47-7.14-10.85Z"/><path class="cls-11" d="M285.61,128.08c-5.76,1.06-11.91,1.38-17.63,4.12-4.43,2.34-8.07,6.33-.43,5.79-1.28,1.33-3.48,2.69-3.81,4.75,1.69.52,3.16-.63,4.44-1.59-5.31,4.59,1.94,3.5,4.73,3.25,4.28-.65,9.12-.76,12.81-2.89,5.16-2.91,0-7.83.1-12.5Z"/><path class="cls-12" d="M282,167.33s0,.28,0,.77a3.64,3.64,0,0,0,.1.85,7.07,7.07,0,0,0,.29,1,10,10,0,0,0,.54,1.15,7.83,7.83,0,0,0,.82,1.14,2.82,2.82,0,0,0,.51.53,5,5,0,0,0,.57.48l.58.39.37.16c.1,0,.19.06.3.08a3.18,3.18,0,0,0,.7.08,2.57,2.57,0,0,1,1,.13,1.06,1.06,0,0,1,.53.57,1.92,1.92,0,0,1,.13.53,6,6,0,0,1,0,.87,7.22,7.22,0,0,1-.07.8,3.44,3.44,0,0,1-.19.79,3.72,3.72,0,0,1-.75,1.28,3.27,3.27,0,0,1-1,.75,3.63,3.63,0,0,1-.85.34,3.4,3.4,0,0,1-.58.07h-.2s.27-.1.7-.29a3.28,3.28,0,0,0,.69-.48,3.76,3.76,0,0,0,.68-.8,3.7,3.7,0,0,0,.45-1.1,2.37,2.37,0,0,0,.07-.64c0-.26,0-.47,0-.73a5.19,5.19,0,0,0-.06-.71c0-.23-.13-.32-.07-.26a3.14,3.14,0,0,0-.59,0,4.21,4.21,0,0,1-1-.09,4.37,4.37,0,0,1-.49-.15l-.39-.17c-.34-.2-.52-.35-.79-.53a4.17,4.17,0,0,1-.65-.6,3.56,3.56,0,0,1-.55-.65,6.51,6.51,0,0,1-.8-1.38,7,7,0,0,1-.41-1.36,4.76,4.76,0,0,1-.08-1.19,4,4,0,0,1,.11-.9C281.9,167.59,282,167.33,282,167.33Z"/><path class="cls-13" d="M283.26,191c4.22.05,7.64.22,9.24-2.63a52.56,52.56,0,0,1-17.12-.07C277.1,190.43,279.52,190.93,283.26,191Z"/><path class="cls-14" d="M294.57,187.94c-.69.16-1.38.29-2.07.41-1.59,2.85-5,2.69-9.24,2.63-3.74-.06-6.16-.56-7.88-2.71l-1.7-.25-.54.76c1.4,4.26,5.17,6.23,9.47,6.32C286.33,195,295.62,193.33,294.57,187.94Z"/><path class="cls-15" d="M225,280.3c2.89,4.23,7.8,7.1,10.88,11.14,1.93,2.75,5.9,13.67,10.69,11.14.92-.39,3-5.66,3-6.6-.05-2.42-3.28-4.78-5-6.23-2.48-2.37-5.14-4.55-7.61-6.92-1.52-1.46-3.09-5-4.79-5.86v.19Z"/><path class="cls-15" d="M315.48,282c-2.15,3.78-7.34,5.57-10.44,8.62h0a62.72,62.72,0,0,1,1.49,8.17c.43,2.79.32,6.15,3.65,4.77,2.77-1.18,3.43-5.3,5.43-7.39a49.93,49.93,0,0,0,5.63-6.84Z"/><path class="cls-7" d="M252.68,283.21c-.91,7.59-7.25,14.21-10.35,20.77-6.21,12.57-4.26,29.62-.68,45.42,3.06,13.51,5.78,21.55,9.86,35,4.67,15.57,2.83,23.66.46,38.85-3.35,19.53,7,39.31,12.26,57.57-2.4,1.82-4.46,2.25-.61,4.87,0,0-1.09,1.24-1.16,1.37a1.9,1.9,0,0,0,.11,1.74c.42.56,1.06.37,1.64.66a5.34,5.34,0,0,0-1.32,1.41c-.49,3.86,16.89,3,19.27,2.92,2.74-.08,11.5.5,8.65-4.57-.2-.35-.34-.09-.33-.51,0-.17.43-.69.51-.91a4.46,4.46,0,0,0-.2-2.8c-.35-1.35,1.06-2.4.67-3.86s-1.51-2.51-1.24-4.09c.6-3.46,5.58-23.82,6.17-27.85.63-4.33,1-8.81,1.35-13.18a258.91,258.91,0,0,0,.76-28.29c-.38-17.29,8.1-36.51,11.63-54.07,2.55-12.7,2.88-19.39,2.09-30.72-.77-10.25-4.8-25.44-10.37-32.89Z"/><path class="cls-16" d="M274,333.9l.34,1.75.19,1,.14,1.16c.1.84.23,1.81.27,2.9.17,2.17.15,4.82.1,7.85s-.26,6.44-.25,10.16l-.07,25.47-.1,14.36q0,1.83,0,3.68t.08,3.7l.15,7.44c.08,5,.15,9.93.23,14.82q.06,3.67.13,7.26l.24,7.09c.14,4.66.27,9.16.4,13.43s.23,8.31.28,12c.1,7.45.19,13.67.25,18s.06,6.83.06,6.83l-.28-6.83-.67-18c-.11-3.72-.27-7.76-.47-12l-.56-13.42-.27-7.09q-.08-3.6-.16-7.27c-.1-4.89-.2-9.87-.3-14.84q-.06-3.73-.11-7.45,0-1.86-.06-3.71t0-3.68c.06-4.89.12-9.71.17-14.36l.42-25.47c0-3.74.33-7.15.47-10.17s.22-5.66.1-7.83c0-1.09-.11-2-.19-2.89l-.1-1.16-.15-1Z"/><path class="cls-16" d="M259.82,328.81l1.27.26c.8.18,2,.45,3.31.86s2.93.9,4.6,1.43a44.23,44.23,0,0,0,5.26,1.37l1.35.2c.45,0,.9.06,1.35.09a13.19,13.19,0,0,0,1.33,0l.65,0,.64-.09a17.23,17.23,0,0,0,2.42-.48c.77-.18,1.45-.5,2.12-.71l1.73-.78c.53-.22.94-.5,1.3-.69l1.14-.61s-.36.3-1,.8c-.34.24-.72.58-1.22.87s-1,.66-1.68,1-1.35.66-2.13.92l-1.21.4a12.59,12.59,0,0,1-1.31.28l-.68.13-.7.05a9.72,9.72,0,0,1-1.42.05c-.48,0-1,0-1.44-.07l-1.43-.19c-.94-.19-1.88-.4-2.78-.68s-1.76-.58-2.61-.87c-1.66-.61-3.17-1.27-4.49-1.78s-2.38-1-3.17-1.25S259.82,328.81,259.82,328.81Z"/><path class="cls-16" d="M275.94,295.67l.3,1.6.32,1.84c.14.71.18,1.53.26,2.42l.23,2.88c0,1,.09,2.09.11,3.21s.07,2.26,0,3.43,0,2.35,0,3.54c-.06,2.37-.15,4.74-.26,7s-.28,4.28-.37,6.06l-.41,5.91-.1-1.63c-.05-1-.14-2.52-.13-4.3s0-3.85,0-6.07.08-4.58.13-6.95.12-4.73.13-6.94c0-1.11,0-2.18.06-3.19l0-2.85c0-.88,0-1.7,0-2.42L276,297.3Z"/><path class="cls-16" d="M271,295.78s.09.46.17,1.28.15,2,.16,3.41,0,3,.06,4.8,0,3.62.09,5.48.17,3.71.37,5.43c.12.85.22,1.69.39,2.45a12.68,12.68,0,0,0,.62,2.12,7.57,7.57,0,0,0,.87,1.62,5.3,5.3,0,0,0,.51.58c.18.15.36.27.52.39a3.62,3.62,0,0,0,.86.36l.33.09-.34,0a3,3,0,0,1-.95-.22c-.18-.1-.4-.21-.62-.35a5.67,5.67,0,0,1-.63-.54,6.16,6.16,0,0,1-1.13-1.63,17.25,17.25,0,0,1-1.42-4.69,42.4,42.4,0,0,1-.51-5.54c-.05-1.89,0-3.77,0-5.53s.21-3.4.3-4.8.22-2.57.25-3.39S271,295.78,271,295.78Z"/><path class="cls-16" d="M240.64,309.06l.78.08a3.36,3.36,0,0,0,.88,0,6.22,6.22,0,0,0,1.1-.08,6.78,6.78,0,0,0,1.27-.27,10.32,10.32,0,0,0,1.34-.51,13.56,13.56,0,0,0,2.62-1.72,21.22,21.22,0,0,0,2.26-2.25c.32-.4.65-.77.93-1.15s.56-.73.79-1.08c.48-.68.87-1.26,1.12-1.69s.41-.66.41-.66-.07.28-.21.75a14.28,14.28,0,0,1-.75,1.93,15.58,15.58,0,0,1-1.5,2.53,14.2,14.2,0,0,1-1.07,1.29,16.55,16.55,0,0,1-1.25,1.21,13.3,13.3,0,0,1-1.43,1,9.57,9.57,0,0,1-1.53.76,7.91,7.91,0,0,1-1.54.42l-.73.1c-.24,0-.47,0-.69,0a4.49,4.49,0,0,1-1.19-.15,3.58,3.58,0,0,1-.87-.24C240.9,309.17,240.64,309.06,240.64,309.06Z"/><path class="cls-16" d="M296.34,302.06s.13.29.34.81a22.06,22.06,0,0,0,1,2.07c.2.42.46.86.73,1.33s.59.93.89,1.42a24.73,24.73,0,0,0,2.27,2.83,17.25,17.25,0,0,0,1.32,1.27c.45.4.92.76,1.38,1.11s.93.64,1.4.89a13.36,13.36,0,0,0,1.34.67,10.7,10.7,0,0,0,1.18.47,6.18,6.18,0,0,0,.95.29l.85.23s-.32,0-.88,0a6.43,6.43,0,0,1-1-.1,6.56,6.56,0,0,1-1.3-.27,9.17,9.17,0,0,1-1.49-.53,12.42,12.42,0,0,1-1.58-.81,13.58,13.58,0,0,1-1.54-1.11,17.85,17.85,0,0,1-1.44-1.33c-.43-.5-.87-1-1.24-1.51a17.37,17.37,0,0,1-1-1.57,17.07,17.07,0,0,1-.8-1.57,12.76,12.76,0,0,1-.58-1.46,9.3,9.3,0,0,1-.37-1.27c-.1-.38-.17-.71-.22-1C296.38,302.38,296.34,302.06,296.34,302.06Z"/><path class="cls-16" d="M254.28,322.81l.67,12.49c.05.94.08,1.91.16,2.92l.29,3.11c.21,2.13.39,4.38.64,6.71l.85,7.17c.29,2.44.69,4.91,1,7.38.65,5,1.42,9.89,2.11,14.53s1.28,9,1.79,12.69.81,6.84,1.07,9l.36,3.42-2.06-12.33L259,377.27c-.74-4.63-1.56-9.57-2.26-14.53-.32-2.48-.68-5-1-7.41l-.77-7.2c-.25-2.34-.33-4.61-.48-6.76l-.19-3.13c0-1,0-2-.07-2.93C254.17,327.82,254.28,322.81,254.28,322.81Z"/><path class="cls-16" d="M263.17,415.94l.44,2.31c.26,1.47.67,3.57,1.09,6.1s.94,5.48,1.41,8.65l1.5,9.93,1.06,10c.34,3.19.57,6.18.82,8.73s.37,4.69.49,6.18l.15,2.35-.38-2.32c-.21-1.48-.57-3.59-.91-6.13s-.78-5.5-1.16-8.68l-1.21-10-1.35-10c-.43-3.18-.75-6.15-1.07-8.7s-.51-4.68-.67-6.16Z"/><path class="cls-16" d="M262.88,484.41l.41.11c.26.06.61.24,1,.33.21.06.44.11.66.19s.5.1.75.17c.51.14,1.07.19,1.62.29a14.84,14.84,0,0,0,1.63.08c.26,0,.52,0,.76,0s.47-.05.69-.06c.44,0,.78-.14,1-.16l.42-.06-.33.26a4.1,4.1,0,0,1-1,.59c-.22.09-.45.19-.71.27a4,4,0,0,1-.83.18,3.92,3.92,0,0,1-.91.08l-.94,0-.92-.19a4.32,4.32,0,0,1-.86-.28,5.23,5.23,0,0,1-.77-.34c-.24-.13-.46-.27-.65-.4a4.65,4.65,0,0,1-.85-.71Z"/><path class="cls-16" d="M264.41,488.34l.4.11c.25.07.59.22,1,.35.2.07.42.13.64.22s.47.14.72.24c.49.18,1,.32,1.55.48.26.08.53.14.79.21s.52.14.77.19l.73.17c.24,0,.46.08.67.12.42.1.77.11,1,.17l.41.08-.38.15a4.52,4.52,0,0,1-1.05.26,6.13,6.13,0,0,1-1.54.05,4.38,4.38,0,0,1-.86-.11c-.29-.06-.59-.11-.88-.19l-.84-.3a6,6,0,0,1-.78-.36,7.6,7.6,0,0,1-1.3-.82,5.84,5.84,0,0,1-.79-.72Z"/><path class="cls-16" d="M278.42,486.59l.38.17c.24.1.56.33,1,.47.2.08.41.17.62.27s.47.16.71.26c.48.2,1,.32,1.55.48a14.24,14.24,0,0,0,1.59.27c.26,0,.51.08.74.08s.46,0,.68,0a8.79,8.79,0,0,0,1,0h.42l-.35.22a3.76,3.76,0,0,1-1,.47c-.22.06-.47.13-.73.19a4.56,4.56,0,0,1-.84.07,3.69,3.69,0,0,1-.9,0l-.92-.14-.88-.29a4.26,4.26,0,0,1-.81-.38,4.67,4.67,0,0,1-.71-.44c-.22-.16-.41-.33-.59-.48a4.21,4.21,0,0,1-.72-.82C278.5,486.72,278.42,486.59,278.42,486.59Z"/><path class="cls-16" d="M281.65,485.8l.32-.09c.2-.06.5-.09.82-.18.16,0,.33-.09.51-.12s.37-.11.56-.14c.39-.09.8-.22,1.2-.33s.81-.26,1.19-.4.74-.27,1.07-.37a9.66,9.66,0,0,1,1.12-.33s-.07.1-.2.26a4.8,4.8,0,0,1-.59.63,5.4,5.4,0,0,1-1,.71,4.07,4.07,0,0,1-.61.32l-.67.26-.7.16a3.58,3.58,0,0,1-.69.08,4.79,4.79,0,0,1-1.24-.08,3.77,3.77,0,0,1-.82-.25Z"/><path class="cls-16" d="M286.08,409l.36,2.38.38,2.74.23,1.68c.06.6.08,1.23.12,1.88l.26,4.25c.11,1.51.07,3.1.07,4.74s0,3.35-.09,5.07l-.21,5.23c-.26,3.49-.52,7-.8,10.26l-.82,8.93-.57,6.32-.23,2.4v-2.41c0-1.53,0-3.73.15-6.35s.24-5.69.48-9l.65-10.25.28-5.2c.12-1.72.13-3.41.16-5s.13-3.22.09-4.71l-.07-4.22,0-1.88-.11-1.7-.18-2.76Z"/><path class="cls-16" d="M291.75,339.28l.17,2.48c.08,1.58.25,3.83.36,6.54s.28,5.87.34,9.25.08,7,.11,10.62l-.15,5.4c0,1.78-.14,3.53-.24,5.23s-.18,3.33-.35,4.88l-.46,4.36-.21,1.94-.28,1.73-.46,2.82-.43,2.45.21-2.48.26-2.84c.12-1.09.2-2.33.28-3.68l.27-4.36c.1-1.54.1-3.18.19-4.87s.16-3.43.16-5.21.05-3.58.08-5.38c0-3.61.08-7.21,0-10.6s0-6.55,0-9.25,0-5,.06-6.55Z"/><path class="cls-17" d="M295.54,216.68c-5.75.85-13.35-.79-19.48-1-2.88.06-9-.88-11.53.25-3.56,1.88-3.11,5.83-3.75,9.81-3.17,19.89-9.5,66.26-11.21,70.26,0,0,16.94,10,22.79,13.81,2.4-4,4.39-8.79,6.47-12.44,3.65,4.66,5.32,8.63,7.93,11.77,3.92,4.72,21.06-9.11,21.72-12,.66-2.54-3.85-11.45-4.64-14.31-4.43-21.16.13-43.24-3.57-64.06Z"/><path class="cls-18" d="M278.84,297.35l.28-3.47.34-4,.25-5.17c.09-1.89.22-3.94.3-6.11s.15-4.46.23-6.83c.22-4.73.3-9.79.46-14.85l.82-27.81c.13-3.79.24-7,.32-9.17l.15-3.48s.14,5.06.17,12.65c0,3.8,0,8.23,0,13,0,2.37-.09,4.82-.13,7.31s-.08,5-.16,7.55c-.2,5.06-.34,10.12-.61,14.86s-.54,9.16-.88,13c-.15,1.89-.3,3.63-.47,5.16l-.54,4Z"/><path class="cls-19" d="M272.53,214.94a4.53,4.53,0,0,1,.77-1.64,12.36,12.36,0,0,1-3,.69c-4,4.34-8.7,7.92-11.87,11,2.46,1.3,6.89,2,9.1,3.86-1.3,2.46-6.52,2.84-7.54,5.57-.65,2.12,3.47,29.1,8.54,40.87C271.59,252.93,273.51,218.5,272.53,214.94Z"/><path class="cls-20" d="M260,234.4c1-2.73,6.24-3.11,7.54-5.57-2.2-1.84-6.63-2.56-9.1-3.86,3.17-3.07,7.82-6.65,11.87-11-4.65.51-9.78-1-14.26.23-2.15.59-16.08,17.93-22.27,23.73-4,3.74-21.2,15.06-23,20.5-2.3,5.73,19.45,34.82,26.3,39.27,1.84-2.2,7.11-7.15,8-9.57.51-1.45-3.72-5.5-5.14-8.45-2-4-4.42-7.92-6.2-11.75-5.39-11.59.35-4.87-.74-8.9.31,1.88,2.1,1.13,2.44.31,0-.81-.3-1.17-.32-2,2.74,1.56,14.3-9.32,17.18-12.18.73,7.19-1.63,31-1.77,36.7l-.22,2.44c.87,3,9.67,9.52,12.92,10,1.92.5,3.77-7.72,5.33-19.06C263.46,263.5,259.33,236.51,260,234.4Z"/><path class="cls-19" d="M297.69,232.31c-1.39-1.84-3.77-3.25-5.16-5.11,2.14-.86,4.83-1.46,6.69-2.85-2.1-3.11-4.65-7.82-7.35-10.83l-2.64-.84c1.18,4.3.78,10.79.88,15.66.12,5.23,1,32.64,1.23,51.65C295.23,266.09,300,235.32,297.69,232.31Z"/><path class="cls-20" d="M303.57,213.17c-4.06-.45-7.15,2.39-11,.58l-.73-.23c2.7,3,5.25,7.72,7.35,10.83-1.86,1.39-4.55,2-6.69,2.85,1.39,1.86,3.77,3.27,5.16,5.11,2.27,3-2.46,33.78-6.34,47.67.05,5.54,0,10.37-.06,13.73,3-.34,11.79-4.58,13.63-7.06,2.1-2.75.58-10.28.77-14.07.58-10.28.59-18.39,2.23-29.6a100.25,100.25,0,0,1,10.92,13.09c4.55,6.25,2.93,10.21,5.62,9.88.46,4.67-12.93,14.34-17.68,19.31a20.36,20.36,0,0,1,9.48,13.49c8.72-9.38,24.58-25.32,25.59-28.85C342.85,266.63,310.34,213.83,303.57,213.17Z"/><path class="cls-21" d="M287.56,210.52a11,11,0,0,1,4.38,7.91c.4,2.38,0,5.66-2.41,5-2.07-.64-6.49-5.28-7.55-7a13.48,13.48,0,0,0,5.4-5.29Z"/><path class="cls-21" d="M277.65,210.9c-2.88.92-4.85,4.89-5.13,7.81-.29,2.4.81,5.79,3.19,5.06,2-.73,5.28-5.54,6.27-7.27-2.42-1.32-3.1-2.74-4.35-4.93Z"/><path d="M268.84,167.25c-1,.82-.9,3.42-.24,4.26,1.1,1.4,2.16,1.55,2.68-.39.32-1.17.08-4.47-2-4.11A1,1,0,0,0,268.84,167.25Z"/><path d="M296.5,166.64c1,.77,1,3.38.42,4.25-1,1.45-2.09,1.64-2.7-.27-.37-1.16-.27-4.47,1.78-4.19A1,1,0,0,1,296.5,166.64Z"/><path class="cls-10" d="M267.48,155.28s0-.12,0-.31a2.33,2.33,0,0,1,.07-.81,5.36,5.36,0,0,1,.21-.56,3.62,3.62,0,0,1,.84-1.05c.19-.14.39-.29.59-.41l.67-.26a2.8,2.8,0,0,1,.67-.13,3.43,3.43,0,0,1,1.19.05,3.13,3.13,0,0,1,.78.28l.27.15-.31.08c-.19.05-.45.07-.75.15s-.31.09-.47.12a3.31,3.31,0,0,0-.5.16,6.83,6.83,0,0,0-1,.42c-.16.08-.31.19-.46.28a2.1,2.1,0,0,0-.42.32c-.12.12-.3.2-.38.33a4,4,0,0,1-.31.33,6.55,6.55,0,0,0-.46.63C267.56,155.19,267.48,155.28,267.48,155.28Z"/><path class="cls-10" d="M292.84,151.78l.27-.17a2.76,2.76,0,0,1,.75-.34,3.72,3.72,0,0,1,1.2-.18,2.39,2.39,0,0,1,.68,0c.23.05.47.08.7.15l.66.3a2.87,2.87,0,0,1,.57.41,3.15,3.15,0,0,1,.78.94,1.42,1.42,0,0,1,.18.45c0,.14.07.26.09.36s.06.31.06.31l-.25-.2-.26-.23a2.16,2.16,0,0,0-.32-.27c-.13-.08-.27-.17-.4-.28a2.3,2.3,0,0,0-.45-.26,5,5,0,0,0-.49-.25l-.53-.2c-.18-.07-.37-.1-.55-.16a3.12,3.12,0,0,0-.55-.13c-.18,0-.36-.09-.53-.11s-.33,0-.48-.07-.6,0-.8-.09Z"/><path class="cls-3" d="M245.15,294c-2.46,1.22,1.06,5.73,1.94,7.11.64,1,1.94,3.38,3.33,3.27,1.55-.11,1-2.35.78-3.36,1.53,2.3,4.31,1.69,3.08-1.15,2.29,1.89,1.92-4.63,1.89-5.71a18.73,18.73,0,0,0-1.69-6.1c.95.76,3.63,6.06,5.07,4.47s-.43-5.58-1.4-6.88c-1.52-2.06-4.08-5.27-6.95-5.13-2.72.14-.93,3.44-.2,4.74-2.5-.41-4.62,2-2.71,4.1-1.86.27-3.36,2.71-2.08,4.4Z"/><path class="cls-12" d="M251.29,301.09s-.08-.12-.21-.33-.14-.23-.21-.38-.19-.3-.29-.47-.22-.34-.33-.53-.27-.38-.39-.59c-.25-.42-.56-.85-.84-1.29s-.56-.89-.83-1.31-.5-.82-.7-1.18-.36-.65-.47-.87-.16-.35-.16-.35a6,6,0,0,1,1.14.8,8.3,8.3,0,0,1,1,1,12.83,12.83,0,0,1,1,1.28,10.94,10.94,0,0,1,.76,1.44,6.21,6.21,0,0,1,.45,1.38,3.61,3.61,0,0,1,.11,1C251.3,300.95,251.29,301.09,251.29,301.09Z"/><path class="cls-12" d="M254.52,299.62a10.69,10.69,0,0,1-.82-1.29c-.11-.2-.23-.41-.34-.65s-.27-.45-.39-.69c-.28-.47-.53-1-.79-1.51s-.57-1-.81-1.52c-.13-.24-.22-.5-.35-.72s-.22-.44-.32-.65a10.85,10.85,0,0,1-.56-1.42,10.24,10.24,0,0,1,1.11,1.06,8.29,8.29,0,0,1,1,1.21c.33.47.64,1,1,1.51s.51,1.12.71,1.66a7.12,7.12,0,0,1,.42,1.49A10.62,10.62,0,0,1,254.52,299.62Z"/><path class="cls-12" d="M252.51,286a2,2,0,0,1,.6.08,2.37,2.37,0,0,1,1,.63,2.2,2.2,0,0,1,.53,1.11,1.66,1.66,0,0,1,0,.61,2.57,2.57,0,0,1-.54-.27,4,4,0,0,1-.81-.69,3.59,3.59,0,0,1-.61-.91A2,2,0,0,1,252.51,286Z"/><path class="cls-3" d="M310,295.34c2.41,1.32-1.3,5.68-2.24,7-.68,1-2.08,3.29-3.47,3.12-1.54-.18-.93-2.4-.64-3.39-1.62,2.23-4.38,1.51-3-1.28-2.37,1.79-1.72-4.7-1.65-5.79a18.77,18.77,0,0,1,1.94-6c-1,.72-3.88,5.9-5.25,4.25s.67-5.56,1.68-6.82c1.61-2,4.3-5.09,7.16-4.83,2.71.25.79,3.48,0,4.75C307,286,309,288.5,307,290.56c1.85.35,3.24,2.85,1.89,4.48Z"/><path class="cls-12" d="M303.53,302.17s0-.14,0-.39a3.59,3.59,0,0,1,.15-1,6.2,6.2,0,0,1,.51-1.36A11.09,11.09,0,0,1,305,298a12.93,12.93,0,0,1,1-1.24,8.32,8.32,0,0,1,1-1,6,6,0,0,1,1.17-.75s-.06.13-.18.34-.3.5-.51.85-.47.73-.75,1.14-.58.84-.89,1.27-.62.85-.89,1.25c-.13.2-.28.39-.42.57s-.23.35-.35.51-.23.3-.31.45-.16.27-.23.37S303.53,302.17,303.53,302.17Z"/><path class="cls-12" d="M300.36,300.56a10.65,10.65,0,0,1,.27-1.5,7.1,7.1,0,0,1,.48-1.47c.22-.53.5-1.08.78-1.63s.67-1,1-1.47a8.36,8.36,0,0,1,1-1.17,10.24,10.24,0,0,1,1.15-1,10.83,10.83,0,0,1-.62,1.39c-.1.2-.22.41-.35.63s-.23.47-.38.71c-.26.49-.56,1-.87,1.49s-.56,1-.85,1.47c-.13.24-.31.44-.42.68s-.25.44-.37.63A10.65,10.65,0,0,1,300.36,300.56Z"/><path class="cls-12" d="M302.95,287a2,2,0,0,1-.21.57,3.57,3.57,0,0,1-.65.88,4,4,0,0,1-.84.65,2.59,2.59,0,0,1-.55.25,1.66,1.66,0,0,1,0-.61,2.2,2.2,0,0,1,.58-1.09,2.37,2.37,0,0,1,1.06-.59A2,2,0,0,1,302.95,287Z"/><path class="cls-18" d="M274.9,261.1a17.66,17.66,0,0,1,1.82-.81,38.53,38.53,0,0,1,8.37-2.17,18.11,18.11,0,0,1,2-.18,17.41,17.41,0,0,1-1.81.81,38.67,38.67,0,0,1-8.38,2.17A17.91,17.91,0,0,1,274.9,261.1Z"/><path class="cls-22" d="M324.47,266.49l.28-.27.33-.29a3.36,3.36,0,0,1,.45-.34,7,7,0,0,1,1.29-.67,8,8,0,0,1,.77-.28l.82-.19a9.9,9.9,0,0,1,1.63-.14,9.1,9.1,0,0,1,1.41.09,7.82,7.82,0,0,1,1.36.29,10,10,0,0,1-1.34.37c-.8.17-1.85.33-2.86.51-.51.09-1,.19-1.49.3s-.9.23-1.3.3-.73.2-1,.25Z"/><path class="cls-22" d="M323.88,264.07a6.66,6.66,0,0,1,.68-1,3.72,3.72,0,0,1,.89-.83,11,11,0,0,1,1.2-.79,10,10,0,0,1,2.44-.9,6.46,6.46,0,0,1,1.2-.16,6.89,6.89,0,0,1-.93.76,20.36,20.36,0,0,1-2.16,1.3c-.21.09-.39.21-.58.31s-.38.19-.57.28a10,10,0,0,0-1.06.51A6.85,6.85,0,0,1,323.88,264.07Z"/><path class="cls-22" d="M223.67,254.39a13.15,13.15,0,0,1,1.48.55,16.08,16.08,0,0,1,3,1.67l.74.61a5.87,5.87,0,0,1,.66.66,6.78,6.78,0,0,1,1,1.34,5.64,5.64,0,0,1,.45,1.07c.09.27.13.42.13.42l-.32-.3c-.21-.19-.44-.49-.78-.79-.17-.15-.35-.31-.53-.49s-.4-.34-.61-.52c-.42-.36-.9-.71-1.37-1.07-1-.7-2-1.42-2.69-2A10,10,0,0,1,223.67,254.39Z"/><path class="cls-22" d="M225.25,252.46l.37-.07a5,5,0,0,1,1-.08,6.53,6.53,0,0,1,1.39.13,4.86,4.86,0,0,1,.76.18l.77.26.73.37a3.69,3.69,0,0,1,.67.43,4.89,4.89,0,0,1,1,1,3.53,3.53,0,0,1,.54.84c.11.21.16.34.16.34l-.33-.19c-.21-.11-.44-.32-.79-.49-.17-.09-.35-.19-.52-.3s-.4-.18-.6-.3c-.4-.22-.87-.4-1.31-.6s-.91-.38-1.36-.53c-.22-.07-.43-.18-.64-.24s-.4-.14-.58-.21c-.36-.15-.69-.24-.9-.34Z"/><path class="cls-22" d="M252.43,247.27s-.06-.3-.14-.83-.19-1.29-.29-2.2c-.2-1.82-.38-4.25-.46-6.68s0-4.88.16-6.7c.05-.91.15-1.67.19-2.2s.1-.83.1-.83.05.3.12.84.17,1.29.24,2.2c.17,1.82.29,4.25.32,6.67,0,1.21.06,2.43,0,3.57s0,2.21-.07,3.12-.11,1.68-.14,2.21S252.43,247.27,252.43,247.27Z"/><path class="cls-22" d="M307.92,243s-.24-1-.46-2.46-.43-3.45-.54-5.43-.09-4,0-5.46.21-2.49.21-2.49.24,1,.44,2.47.4,3.45.5,5.43.12,4,.05,5.46S307.92,243,307.92,243Z"/><path class="cls-23" d="M193.36,188.61c3.44-.89,6.1,4,5.41,7.46-.93,4.62-5.47,6-8.09,6.76-.08-3.94,1.13-9.41,1.88-13.21Z"/><path class="cls-24" d="M142.86,145.54c-6.57,8.84-9,19.08-9.78,29.78-.24,4.45.65,7.88,2,12,1,3.1,6.28,10.07,6.64,3.16a44.68,44.68,0,0,0-.88-11.49c2.9-3.18,2.48-7.94,5.2-11.61A20.49,20.49,0,0,1,157,160.22a19.43,19.43,0,0,1,6.89-1c2,.13,4.3,1.4,6.11,1.2,2,0,3.91-2,5.87-2.58a11.39,11.39,0,0,1,5.75-.11c10.72,1.76,11.86,9.8,11.88,19.17-.08,4.28.49,8.38.08,12.49-.13,1.81-.89,5,1.71,3.42,1.62-1,2.7-5,3.49-6.48a34.38,34.38,0,0,0,3.64-15.69c0-7.56.21-14.64-5.65-20.11-7.37-7.09-17.08-7.56-26.79-8.19-7.57-.51-14.29.61-21.66,2.23Z"/><path class="cls-25" d="M228.92,246.06c.18-.18,0-.72.35-.73,4.31-.8,9.22,1.62,12.52,4.44,5.68,4.93-6,7.86-10.2,3.8Z"/><path class="cls-26" d="M230.53,245.31c-1.32-2.86,4.65-1.53,6.1-1s5.26,1.52,6,2.77c1.12,1.78-1.56,2.91-3.55,2.77Z"/><path class="cls-26" d="M158.3,236.75c-.73-.23-4.08.32-5.26,1.54-3.06,2.94-2.91,10.63-3.09,14.23-.08,8.17-1.37,16.12-1.93,24.06-.49,11.78-.27,23.31-.28,34.84,0,1.92-.6,6.26.39,7.68,1.48,1.89,6.53,2.28,8.7,2.47,4.81.39,16.35.64,19.39-3.74,1.86-2.92,1-11.31.91-14.67.11-6.73-.5-13.2.09-19.94,1-10.35,2-21.18.83-31.48-.58-5.27-.22-11-5.54-13.34a10.66,10.66,0,0,0-3.87-1.37Z"/><path class="cls-27" d="M230.61,249.32c3.87-13.51,2.66-27.22,4.47-40.91.52-2.87,2.79-18.18,5-17.54,2.51.72.38,15.55.5,18.31,0,1.2-.29,2-.33,3.25,1.56-4.39,2.28-9,3.48-13.2.56-2,.84-6.1,2.44-7.46,2-1.83,5.35-1.79,4.39,1.56,4.59-4.43,2.31,6.71,2,8.74-.92,4.27-2.2,8.74-3.4,12.93.84-4,4-9.73,8.11-10.37-.24,7.18-5.35,10.25-8.51,16-2.56,4.71-2.17,15-9.76,14a103.44,103.44,0,0,0-3.41,16.13Z"/><path class="cls-12" d="M244.26,213.28s.07-.33.23-.89.37-1.37.67-2.32c.58-1.91,1.44-4.42,2.39-6.91.79-2.52,1.66-5,2.39-6.87.35-.93.7-1.69.91-2.23s.37-.84.37-.84-.05.33-.17.9-.28,1.39-.52,2.36c-.47,1.95-1.18,4.52-2,7.07-.95,2.48-2,4.93-2.82,6.74-.41.91-.8,1.65-1,2.18S244.26,213.28,244.26,213.28Z"/><path class="cls-27" d="M232,207.64c-4.27,1.19-2.41,23.18,2,25.66,7.9,4.07,5.08-10.33,3.12-13-1.47-2.24-2-.56-3-4.19a22.84,22.84,0,0,1-.83-6.59Z"/><path class="cls-12" d="M239,231.68s0-.27,0-.74a8.07,8.07,0,0,0,0-.85c0-.32-.07-.68-.09-1.07s-.11-.81-.15-1.25-.13-.91-.23-1.39-.18-1-.31-1.48-.22-1-.4-1.5a13.05,13.05,0,0,0-.47-1.46c-.1-.23-.17-.48-.27-.69l-.31-.61a6.35,6.35,0,0,0-.79-1.07,11.94,11.94,0,0,1-1-.86,2.85,2.85,0,0,1-.54-1.05,5.18,5.18,0,0,1-.22-.83c-.09-.46-.13-.73-.13-.73s.13.24.33.66a4.91,4.91,0,0,0,.39.73,3.08,3.08,0,0,0,.61.79c.23.21.66.36,1.08.68a5.42,5.42,0,0,1,1.05,1.13,7.18,7.18,0,0,1,.77,1.46,13.54,13.54,0,0,1,.54,1.55c.17.52.26,1.06.38,1.58a13.4,13.4,0,0,1,.23,1.56,9.16,9.16,0,0,1,.1,1.47,8.64,8.64,0,0,1,0,1.33c0,.42-.09.79-.13,1.12a8.32,8.32,0,0,1-.22.82C239.05,231.43,239,231.68,239,231.68Z"/><path class="cls-12" d="M238.34,211.89s.77,0,1.88.1c.56,0,1.2.1,1.9.21.35.06.71.09,1.07.18l1.11.26,1.09.39a6.83,6.83,0,0,1,1,.49,8.12,8.12,0,0,1,1.61,1.15,3.89,3.89,0,0,1,.54.57l.38.47c.2.26.31.42.31.42l-.46-.26-.5-.31a6.44,6.44,0,0,0-.64-.39l-.78-.4a6.16,6.16,0,0,0-.88-.4c-.32-.12-.62-.27-1-.37l-1-.32c-1.39-.38-2.84-.72-3.92-1.08A14,14,0,0,1,238.34,211.89Z"/><path class="cls-27" d="M129.09,340.37c-1.19.74-3.34,1-4.52,2.25-2.84,2.22-3,6.06-2.94,9.43.13,6.48,5.6,16,12.36,17.78,1.3-7-1.51-15.83-3.33-22.76a16.59,16.59,0,0,0,4.21,6.4c2.58-3.17-2.39-11.48-5.3-13.35Z"/><path class="cls-4" d="M158,517.28c.11-3-1.22-6.35-2.36-9.1l-14.4.53c-3,3-8.2,5.83-12.43,8.39-2.31,1.35-9,4.2-10.29,6.7C121.92,529.58,151.31,521.44,158,517.28Z"/><path class="cls-28" d="M118.56,523.79c-.66,1.31.18,2.53,3.93,3.38,5.57,1.24,12,.28,17.74-1.13,2.62-.58,5.42-2.84,8.06-2.94,3.11-.35,4.14,1.53,7.42-1a6.08,6.08,0,0,0,2.33-4.83C151.31,521.44,121.92,529.58,118.56,523.79Z"/><path class="cls-4" d="M161.37,518.24c-.32-2.95.76-6.42,1.68-9.25l14.4-.53c3.23,2.77,8.6,5.21,13,7.45,2.41,1.17,9.31,3.52,10.75,5.93C198.29,527.85,168.38,521.89,161.37,518.24Z"/><path class="cls-28" d="M201.21,521.83c.75,1.26,0,2.54-3.67,3.66-5.47,1.64-12,1.16-17.78.17-2.66-.38-5.62-2.44-8.26-2.34-3.13-.12-4,1.83-7.47-.45a6.08,6.08,0,0,1-2.68-4.65C168.38,521.89,198.29,527.85,201.21,521.83Z"/><path class="cls-29" d="M128.94,333.18s3.18,68,5.32,79.17-1.61,36.09,2.13,55.05c1.87,9.48,5.07,20.51,3.31,30-.32,1.72-1.11,3,.85,4.44-2.08,1.06-2.09,3.33,0,4.24-6.47,2.26,4.81,4.38,6.6,4.42,2.48.06,11.18,1.52,11.84-1.51l1-138.61s.67,67.25,1.46,69.16S158,494.14,161,508c.45,2,7.76,2.47,9.08,2.44,2.56,0,8.8-.73,10.37-3,1.21-1.78.65-6.39-1.71-7,1.29-1.1,2.43-2.53,2-4.35a4.91,4.91,0,0,1-.92-.09c4.13-2.39,1.14-4.63,0-7.14,0,0,3.7-45.92,4.35-57.84s8.36-86.67,5.47-96.56L183,320.16l-49.94,4.51-4.32.16Z"/><path class="cls-30" d="M139,505.42l.72.15a7.19,7.19,0,0,0,.81.11c.3.05.67,0,1,.06a19.15,19.15,0,0,0,2.62-.18c.48,0,1-.15,1.47-.22s1-.18,1.52-.29c2-.4,4.1-.85,5.68-1.08a18.94,18.94,0,0,1,2.65-.24s-1,.37-2.5.88a46.11,46.11,0,0,1-5.61,1.56,21.28,21.28,0,0,1-3.13.39,11.68,11.68,0,0,1-2.77-.17,6.92,6.92,0,0,1-1.08-.28,4.9,4.9,0,0,1-.79-.32Z"/><path class="cls-30" d="M142.1,501.7h.39c.25,0,.6.07,1,.07.2,0,.42,0,.64,0s.47,0,.72,0c.49,0,1,0,1.56,0,1.06,0,2.14,0,3,.09a12.41,12.41,0,0,1,1.4.14,7.14,7.14,0,0,1-1.32.51,8.88,8.88,0,0,1-1.41.3,6.85,6.85,0,0,1-.81.08l-.84,0a10,10,0,0,1-1.65-.19,6.57,6.57,0,0,1-1.41-.42,4.41,4.41,0,0,1-.9-.48Z"/><path class="cls-30" d="M176,501.18l-.36.3-.42.33a3,3,0,0,1-.62.34,7.25,7.25,0,0,1-.79.34c-.29.08-.59.17-.91.23a4.82,4.82,0,0,1-1,.14,8,8,0,0,1-1,0l-1-.1a6.61,6.61,0,0,1-1-.23,4,4,0,0,1-.89-.3c-.27-.12-.52-.25-.75-.38a4.89,4.89,0,0,1-1-.75c-.22-.2-.34-.32-.34-.32l.46.13c.29.07.65.25,1.13.34.24,0,.49.1.76.17a6.62,6.62,0,0,0,.84.13,14.3,14.3,0,0,0,1.84.16,23.26,23.26,0,0,0,1.85,0c.29,0,.58-.05.86-.07l.74-.12a4.76,4.76,0,0,0,.66-.12l.51-.14Z"/><path class="cls-30" d="M166,494.7l.59.18c.38.1.9.35,1.54.5.32.09.66.18,1,.29s.75.16,1.14.27c.79.21,1.65.32,2.5.48s1.72.25,2.54.3c.41,0,.8.1,1.18.11s.73,0,1.06.08c.66.07,1.22.06,1.61.11l.62.06-.6.16a12.12,12.12,0,0,1-1.61.32,14.8,14.8,0,0,1-2.31.16,10.31,10.31,0,0,1-1.31,0l-1.35-.14-1.33-.28a8.82,8.82,0,0,1-1.27-.37,10,10,0,0,1-1.16-.43c-.36-.17-.69-.34-1-.5a8.71,8.71,0,0,1-1.37-.89Z"/><path class="cls-30" d="M140.55,351.79l.43,3c.25,1.94.66,4.7,1.07,8s.92,7.2,1.38,11.36l1.46,13,.82,13.1c.27,4.18.43,8.09.61,11.43s.26,6.14.34,8.09l.1,3.07-.32-3.06c-.18-1.95-.48-4.72-.76-8.06s-.65-7.22-1-11.39l-1-13.07-1.31-13c-.42-4.16-.73-8.06-1-11.4s-.49-6.12-.65-8.07Z"/><path class="cls-30" d="M143.18,433.17l.38,1.89c.22,1.21.58,2.92.93,5s.8,4.48,1.11,7.09.67,5.39,1,8.18.51,5.58.71,8.2.33,5.07.46,7.16.17,3.85.23,5.07l.06,1.93-.28-1.91c-.15-1.22-.42-3-.65-5l-.83-7.13c-.3-2.61-.57-5.39-.85-8.18s-.61-5.55-.86-8.16c-.15-1.3-.22-2.57-.36-3.76l-.39-3.37c-.25-2.09-.39-3.83-.51-5.05Z"/><path class="cls-30" d="M160,370.41l0-2c0-1.27.1-3.09.11-5.26,0-1.08,0-2.26,0-3.5s-.06-2.55-.08-3.91c0-2.71-.19-5.6-.31-8.49l-.44-8.5c-.14-2.71-.19-5.26-.27-7.43s0-4,0-5.26l0-2,.2,2,.46,5.24.63,7.4c.1,1.36.23,2.75.31,4.18l.26,4.32.15,4.33c.07,1.43,0,2.84,0,4.2s0,2.68-.1,3.93l-.19,3.52c0,1.09-.17,2.08-.27,3l-.26,2.28Z"/><path class="cls-30" d="M163,324.65l.67,5.13c.18,1.54.43,3.34.6,5.27s.28,4,.31,6.1c0,1,0,2.09-.12,3.12a30.1,30.1,0,0,1-.35,3,24.93,24.93,0,0,1-.62,2.77,20.88,20.88,0,0,1-.85,2.4l-.45,1c-.16.32-.36.6-.51.88a9.66,9.66,0,0,1-.91,1.37l-.91,1.11.72-1.23a9.42,9.42,0,0,0,.72-1.45,15.62,15.62,0,0,0,.74-1.95,20.13,20.13,0,0,0,.64-2.38c.16-.86.31-1.77.43-2.71s.2-1.93.24-2.94.06-2,.08-3,0-2-.05-3.06l-.12-3-.24-5.29C162.88,326.73,163,324.65,163,324.65Z"/><path class="cls-30" d="M153.69,375.82s.61-.82,1.63-1.93c.25-.28.53-.58.83-.89a13.14,13.14,0,0,1,1-.93c.7-.64,1.48-1.28,2.26-1.93a37.76,37.76,0,0,1,4.64-3c1.33-.72,2.27-1.12,2.27-1.12s-.73.72-1.9,1.66c-.59.47-1.27,1-2,1.6s-1.53,1.18-2.31,1.79-1.55,1.23-2.3,1.78c-.37.29-.75.52-1.08.81s-.66.52-1,.75C154.56,375.29,153.69,375.82,153.69,375.82Z"/><path class="cls-30" d="M174.6,424.8l-.06-2.5a25.4,25.4,0,0,1,.05-2.87c.07-1.11.12-2.38.26-3.73s.3-2.83.34-4.38l.25-4.9.29-5.25c.11-1.79.21-3.6.2-5.41.06-3.63.25-7.24.2-10.65s.09-6.59.09-9.31.09-5,.12-6.59l.08-2.5.15,2.5c.07,1.59.21,3.86.3,6.59s.2,5.91.25,9.32c0,1.7,0,3.47,0,5.27s0,3.62-.06,5.44-.15,3.64-.28,5.42l-.37,5.24c-.1,1.7-.26,3.32-.41,4.9s-.37,3-.53,4.38l-.47,3.68a25.15,25.15,0,0,0-.26,2.85Z"/><path class="cls-30" d="M171.67,443.3l.21,1.62c.11,1,.31,2.5.48,4.27l.27,2.85c.11,1,.13,2.09.17,3.2.08,2.22.13,4.6.18,7s0,4.73-.11,7l-.2,6.06c-.05,1.77-.17,3.25-.22,4.29l-.11,1.63-.11-1.63c0-1-.15-2.51-.2-4.29s-.14-3.85-.16-6.06,0-4.58,0-6.95-.05-4.71,0-6.92c0-1.11.05-2.18,0-3.19s-.06-2-.08-2.86c-.06-1.77,0-3.26-.06-4.29S171.67,443.3,171.67,443.3Z"/><path class="cls-4" d="M148.06,318.28c-3-.25-5.93-.65-8.86-1.06-2.16-.34-5.23-.2-7.18-1.47l.3,7.76c2.46.26,5.09.82,7.63,1.08,4.73.52,9.55.85,14.35,1.29.11-2.38.46-4.79.55-7.16C152.59,318.63,150.33,318.5,148.06,318.28Z"/><path class="cls-4" d="M187.29,316.21a5.38,5.38,0,0,0-1.91.42A66.63,66.63,0,0,1,167,319c-.23,2.46,0,5.1-.09,7.67,3.53,0,7.09-.22,10.56-.5,2.68-.21,9.12-1.25,9.68-4.19A24.21,24.21,0,0,0,187.29,316.21Z"/><path class="cls-31" d="M161.9,318.93c-2.35-.07-4.7-.12-7-.22-.09,2.37-.44,4.78-.55,7.16,1.22.11,2.44.22,3.66.36a74.89,74.89,0,0,0,9,.43c.05-2.58-.14-5.22.09-7.67C165.29,319,163.57,319,161.9,318.93Z"/><path class="cls-32" d="M162.49,248.44c-2.18,9-2.44,12.86-5,28-1,4.88-2.69,16.79-1.77,19,1.63,3.87,5.54,10.65,8.3,13.66,2.28-3.29,5.29-10.32,7.11-14,.94-1.87-3.14-31.88-5.78-46.78Z"/><path class="cls-33" d="M162.69,240.33c-.88.92-3.54,3.31-3.69,4.58-.5,2,2.26,5.18,4.08,5.87,2.54.85,4.65-1.89,5.68-4.43,1-2.36.83-3.62-1-5.57Z"/><path class="cls-13" d="M158.64,235.72c-1.43.39-4.5.09-5.74,1.19-2.66,2.39-3.06,9.43-1.92,12.65,1.55,5.38,6.23,5.1,9.39,1.26,2.82-3.12,3.12-6.55,3.76-10.52.79,3.77,5.2,17.19,10.88,12.94,4.26-3.33.3-12.26-.68-16.2-4.32.44-11.79,5.45-15.67.49Z"/><path class="cls-27" d="M144.5,152.31a25.7,25.7,0,0,0-2.77,5.16,62.24,62.24,0,0,0-3.59,15.44,56.88,56.88,0,0,0,0,16.44c-1.18-1.44-2.65-1-4.27.15-2.1,1.69-2.24,3.1-1.86,5.72.58,4.59,4.28,8.54,8.88,8.29,2.79,8.33,6.74,17.06,17.64,19.31.75,4.59.36,10,.61,14.62,2.35,2.42,12.75,3.49,12.32-.41-.2-1.8-.7-10.84-1.25-13.79,5.12-1.25,7.36-2,10.77-4.16,4.22-2.71,7.26-6.88,9.48-11.36a47.74,47.74,0,0,0,4.18-13.23c.41-4.12,1.49-7.92,2.23-12,.72-5.11.45-10.86.18-16.12-.8-15.6-15.28-24.86-30.07-24.57-7.61.15-15.23,2.64-20.6,8.25A19.64,19.64,0,0,0,144.5,152.31Z"/><path class="cls-34" d="M170.5,138.59c-4.46-3.13-6.13-3.5-9.59-3.77-7.9-.34-16.73,2.13-22.54,7.67-5.81,5.37-9.28,12.84-11.28,20.28-.46,1.65-1,2.61-1.11,3.35s17.8,9.48,19.74,7.79c1-.84,4.92-9.3,6.68-11.31,2.24-3,5.45-7,9.57-6.93,3,.11,6.46,2.34,8.47,4.44,3.07-2.53,4.32-6.33,8.74-7.08a9.11,9.11,0,0,1,8.62,3.45c3.71,4.86,4.36,12.74,3.65,18.67,3.78.09,16.36-4.35,17.5-4.94,1-.51-.23-3-.6-5.08-1.46-7.7-3-17.37-8.67-23.18a22.91,22.91,0,0,0-15.09-6.78c-4.44-.24-8.73-.72-14.09,3.41Z"/><path class="cls-12" d="M163.48,191c.63,1.25,1.18,2.55,1.89,3.73.16.31.38.57.56.86a6.14,6.14,0,0,0,.62.8,4.72,4.72,0,0,0,.7.72,4.32,4.32,0,0,0,.78.62,7.21,7.21,0,0,0,.85.53,6.79,6.79,0,0,0,.9.4,5.54,5.54,0,0,0,1.87.36,3.37,3.37,0,0,0,.9-.13,2.55,2.55,0,0,0,.79-.37,3.12,3.12,0,0,0,.63-.6,4.71,4.71,0,0,0,.46-.79l0,0a5.77,5.77,0,0,0,.2-1.2,7,7,0,0,0,0-1.26,11.54,11.54,0,0,0-.59-2.53c-.13-.42-.32-.82-.48-1.23l-.28-.6c-.06-.15-.21-.38-.31-.57l-1.36-2.38c-.23-.4-.42-.82-.62-1.24a8.55,8.55,0,0,1-.54-1.29,7.14,7.14,0,0,1-.4-1.35,8.5,8.5,0,0,1-.21-1.4c0-.47,0-.94,0-1.4l.23-1.37a20.46,20.46,0,0,1,.75-2.64l-.23,1.35a7.77,7.77,0,0,0-.19,1.34l-.08,1.34.12,1.32a7.9,7.9,0,0,0,.28,1.29,6.52,6.52,0,0,0,.46,1.23,8,8,0,0,0,.59,1.19c.22.39.43.78.68,1.16l1.43,2.32c.12.21.24.35.37.62l.32.63c.18.43.39.86.53,1.31a12.66,12.66,0,0,1,.68,2.77,7.62,7.62,0,0,1,0,1.47,6.85,6.85,0,0,1-.27,1.48v.05a5.68,5.68,0,0,1-.61,1,3.94,3.94,0,0,1-.9.82,3.64,3.64,0,0,1-1.12.48,4.39,4.39,0,0,1-1.18.13,5.92,5.92,0,0,1-2.2-.51,7.91,7.91,0,0,1-1-.51,8.39,8.39,0,0,1-.89-.64,5,5,0,0,1-.81-.73,5.27,5.27,0,0,1-.71-.83,9,9,0,0,1-1.11-1.84c-.31-.64-.55-1.3-.79-2S163.69,191.67,163.48,191Z"/><path class="cls-35" d="M151.55,169.37c.43-3.46,5.18-3.88,7.2-1.62-2.13.53-4.57,1.73-6.7,1.94Z"/><path class="cls-35" d="M179.29,167.35c3.92-1.39,6.57-.46,7,3.48Z"/><path d="M155.36,178.56c-2.24.57-2.06,6.21.75,6,2.46-.27,2.79-5.85.38-6.25Z"/><path d="M183.29,181.53c2,1.1.48,6.53-2.2,5.68-2.32-.87-1.28-6.35,1.16-6.15Z"/><path class="cls-13" d="M165,206.22c3.54.66,8.34,2.64,10.06-1.07L155.84,201C156.39,204.6,161.15,205.49,165,206.22Z"/><path class="cls-14" d="M175.07,205.15c-1.72,3.71-6.52,1.73-10.06,1.07-3.86-.73-8.62-1.62-9.17-5.25l-1.88-.41c-.72,4.95,5.63,10.58,10.09,11.64,6.27,1.36,10.15-2,13.52-6.51Z"/><path class="cls-12" d="M163.07,223.17a15.37,15.37,0,0,1,1.84-.17l.88,0c.31,0,.63-.09,1-.12s.67-.08,1-.09a7.13,7.13,0,0,0,1-.1c.71-.09,1.41-.19,2.09-.24s1.29-.18,1.84-.21a15.6,15.6,0,0,1,1.84-.09,14.91,14.91,0,0,1-1.7.73,12,12,0,0,1-1.8.56c-.68.15-1.41.27-2.14.39a15.81,15.81,0,0,1-2.2.07c-.35,0-.69,0-1,0s-.6-.11-.87-.17A15.39,15.39,0,0,1,163.07,223.17Z"/><g class="cls-36"><path class="cls-35" d="M169.24,154.79c1-4.94.41-10.61.16-15.53-2.46,0-9.43-2.89-11.25-1.47-3,2.36,4.07,3.92,5.46,4.35-1.08,0-4.92-.21-5,1.17s3.72,1.77,4.65,2.06c-1.38,0-6.62-.33-6.57,1.82s4.18,1.46,5.57,1.89a12.08,12.08,0,0,1,6.71,5.4Z"/></g><g class="cls-36"><path class="cls-35" d="M171.7,139.22c-.58,1.86-.21,4.77-.33,6.92-.1,2.92-.81,5.86-.6,8.77,1.46-3.72,4.05-5.15,7.88-5.84.92,0,3.39.24,3.67-.84.58-1.7-2.19-2-3.27-1.93,1.8-2.5,4.54-3.78-.54-3.83,1.81-1.73,4.24-3.16.84-4.17a12.58,12.58,0,0,0-4.15.23Z"/></g><path class="cls-35" d="M130.46,168.61s0-1,.26-2.4a11.78,11.78,0,0,1,.53-2.41c.26-.87.58-1.8.9-2.71.73-1.77,1.55-3.51,2.21-4.78s1.19-2.1,1.19-2.1-.18,1-.59,2.34a52.22,52.22,0,0,1-1.76,5c-.33.88-.65,1.76-1,2.57-.16.41-.36.79-.49,1.18s-.25.76-.38,1.1C130.88,167.73,130.46,168.61,130.46,168.61Z"/><path class="cls-35" d="M136.67,171.71a19.59,19.59,0,0,1,.51-2c.09-.3.19-.62.3-1s.17-.71.27-1.07c.19-.74.44-1.51.68-2.29s.53-1.57.81-2.29a14.3,14.3,0,0,1,.89-1.94,18.74,18.74,0,0,1,1.05-1.8,20.12,20.12,0,0,1-.44,2c-.08.3-.16.62-.27,1s-.17.71-.28,1.07c-.19.75-.43,1.53-.68,2.32s-.55,1.59-.84,2.31a10.56,10.56,0,0,1-.91,1.92A19.44,19.44,0,0,1,136.67,171.71Z"/><path class="cls-37" d="M142.88,258.91c1.75-2.74,5-4.42,7.26-6.63-1.83-1.58-6.85-.41-8.51-2.18-1.29-1.6,1.36-4.17,2.59-5.64a42.39,42.39,0,0,1,7.7-7.36c-2.87.59-6.07,1.56-8.79,2.16-7.54,1.5-14.28,2.17-15.74,10.58-2.67,15.46-4.53,31.17-6.93,46.62-.48,3.25-4.67,10.09-1.94,11.39-4.56,2-1,19.48-.89,23.8.42,7.83.81,14,3.93,21.27,0-3.13.24-6.22,1.54-8.68,1.08-2.27,2.48-2.37,4.62-3.26a24.74,24.74,0,0,0,1.32,7.46,46,46,0,0,0,11.43,18.15c1.93,2.12,5.26,6.65,8.18,3.89,1.85-1.93,1.47-7.87,1.69-10.3,1.31-15.7,1.55-31.11,2.06-47.06.09-2.25.17-4.49.26-6.73A245.91,245.91,0,0,1,142.11,266C141.7,263.08,141.3,261.28,142.88,258.91Z"/><path class="cls-38" d="M154.75,253.36c.19-4.33-.52-13,2.11-16.53l-1.09-.25a21.75,21.75,0,0,0-3.86.52,42.39,42.39,0,0,0-7.7,7.36c-1.23,1.47-3.89,4-2.59,5.64,1.66,1.77,6.68.59,8.51,2.18-2.3,2.21-5.51,3.89-7.26,6.63-1.58,2.37-1.18,4.17-.76,7a245.91,245.91,0,0,0,10.55,40.46c.45-11.47.87-22.8,1.1-34.11C153.92,266.08,154.33,259.59,154.75,253.36Z"/><path class="cls-13" d="M229.15,248.4a22.48,22.48,0,0,0,1.36-4.31v.5a26.15,26.15,0,0,0,12.23,3.84,31.38,31.38,0,0,1-2.31,6.05Z"/><path class="cls-37" d="M228.91,245.34c-.66,3.08-7.17,29.88-10.8,30.3-1.85-2.67-1.84-3.93-3.23-1-3.66-3.17-7.21-5.26-10.34-9-3.13-3.36-5.67-8.36-8.09-12.27-1.68-2.85-2.46-5.9-3.77-8.57-1.51-3.39-4.78-4.77-7.69-6.16L175.46,236c1,2.23,2.81,4.94,3.67,6.48.56,1.07,3.33,4.26,3,5.53-.14,2.16-3.92,2.24-5.34,3.35-2.31,1.67-1,2.36,1,4.66,1.84,2.13,3.48,3,3.53,5.7.25,3.78-1.64,8.32-2.11,11.93-1.81,9.54-5.12,22.63-7.93,33.13-.25,11.36-.49,20.83-.66,25.23-.08,5.23-.37,29.91,1.11,32,3.34,5,10.35,1.42,14.08-1.36A18.59,18.59,0,0,0,192,349.29c0-10.09-.39-20.17-1-30.25-.37-9.54-.94-38.9-1.05-44.87a93.59,93.59,0,0,0,20.68,16.38c4.93,2.91,12,7.3,18.31,5.92,5.2-1.18,7.34-11.65,8.87-16.36,2.39-6.89,3.72-14,5-22.44.24-1.61.29-3.43.44-5.05C239.85,252,229.18,250.2,228.91,245.34Z"/><path class="cls-38" d="M181.31,261.76c-.05-2.7-1.69-3.57-3.53-5.7-2-2.3-3.3-3-1-4.66,1.42-1.11,5.2-1.18,5.34-3.35.34-1.27-2.43-4.46-3-5.53-.87-1.54-2.63-4.25-3.67-6.48l-3.5-.95c.56,2.31-.07,43.07-.69,71.72,2.81-10.5,6.12-23.59,7.93-33.13C179.67,270.08,181.56,265.54,181.31,261.76Z"/><path class="cls-35" d="M195.5,154s.15.27.4.75.59,1.17,1,2l.61,1.35a14.3,14.3,0,0,1,.53,1.58c.35,1.11.68,2.31,1,3.5s.44,2.42.61,3.57c.09.57.18,1.12.22,1.65s.08,1,.1,1.49c.06.92.06,1.69.08,2.23s0,.85,0,.85-.09-.3-.22-.82-.33-1.27-.51-2.16c-.1-.45-.2-.93-.29-1.45s-.25-1-.36-1.61c-.26-1.11-.49-2.3-.73-3.49s-.6-2.33-.84-3.44c-.15-.55-.21-1.1-.38-1.6l-.42-1.42c-.26-.88-.43-1.64-.57-2.15S195.5,154,195.5,154Z"/><path class="cls-35" d="M201.66,154.31l.37.61a14.57,14.57,0,0,1,.87,1.65,19.21,19.21,0,0,1,.94,2.49c.14.47.31.94.41,1.44l.34,1.51.23,1.53c.09.5.1,1,.15,1.48a25.66,25.66,0,0,1,.09,2.64,22.25,22.25,0,0,1-.16,2.57s-.24-1-.49-2.52l-.43-2.57-.5-2.92c-.2-1-.37-2-.59-2.9-.12-.46-.18-.92-.29-1.33s-.2-.81-.29-1.18c-.16-.74-.37-1.36-.47-1.8Z"/><path class="cls-24" d="M130.16,244.38l-.24,1.09c-.14.71-.43,1.74-.66,3.07s-.53,2.94-.72,4.82c-.13.93-.22,1.93-.28,3s-.18,2.15-.21,3.31-.1,2.36-.09,3.61,0,2.54,0,3.86c0,2.65.21,5.45.35,8.34.32,5.79.82,12,1,18.18.07,3.11-.05,6.21-.09,9.25s-.1,6-.15,8.95c-.09,5.8-.27,11.22-.38,15.86-.06,2.32-.1,4.45-.21,6.34s-.19,3.53-.31,4.88l-.4,4.24.18-4.25c.06-1.35.06-3,.11-4.88s0-4,0-6.33c0-4.64,0-10.06,0-15.86,0-2.9.05-5.9.08-8.95s.1-6.14,0-9.22c-.09-6.17-.54-12.34-.82-18.15-.14-2.9-.21-5.71-.19-8.38,0-1.33,0-2.63.07-3.89s.1-2.47.19-3.63.17-2.27.3-3.33.24-2.05.41-3c.27-1.87.64-3.48.93-4.81s.63-2.33.81-3Z"/><path class="cls-24" d="M118.26,308.57a7,7,0,0,1,1.14-.62,11,11,0,0,1,2.69-.79l.77-.08a5.07,5.07,0,0,1,.75,0,5.9,5.9,0,0,1,1.33.16,4,4,0,0,1,.9.3l.32.16-.36.07c-.23,0-.53.05-.9.12l-2.65.4c-1,.15-1.95.26-2.71.3A8.6,8.6,0,0,1,118.26,308.57Z"/><path class="cls-24" d="M117.06,311.48l.37-.18a4.51,4.51,0,0,1,1-.37c.22,0,.46-.1.73-.14a4.38,4.38,0,0,1,.81-.05,5,5,0,0,1,.87,0l.88.12.85.23a5.8,5.8,0,0,1,.8.29,8.76,8.76,0,0,1,1.35.66,7.51,7.51,0,0,1,1.2.85,13.87,13.87,0,0,1-1.44-.24l-3-.67c-.54-.09-1.07-.22-1.58-.27-.25,0-.51-.1-.73-.1s-.45,0-.66-.06c-.41-.06-.79,0-1-.06Z"/><path class="cls-24" d="M122.35,305.79a3.87,3.87,0,0,1,.69-.57,3.83,3.83,0,0,1,.35-.22c.14-.06.22-.18.35-.26a5.81,5.81,0,0,1,.73-.48,7.46,7.46,0,0,1,.78-.51c.27-.14.51-.29.73-.41a4.15,4.15,0,0,1,.82-.34,3.58,3.58,0,0,1-.38.81,2.91,2.91,0,0,1-.55.71,8.72,8.72,0,0,1-.78.68,8.62,8.62,0,0,1-1,.46,1.51,1.51,0,0,1-.46.14,3.79,3.79,0,0,1-.41,0A3.87,3.87,0,0,1,122.35,305.79Z"/><path class="cls-24" d="M141.94,331.17c0,.69,0,1.37-.07,2.05s-.09,1.36-.13,2c0,1.35,0,2.69,0,4v.56h-.55c-1.05,0-2.11,0-3.17,0s-2.13-.06-3.19-.13a28.18,28.18,0,0,1-3.19-.44c-.53-.12-1-.27-1.56-.41s-1-.36-1.51-.56c.54.05,1.06.13,1.58.21s1.05.07,1.57.12l1.57.07,1.57,0c2.1,0,4.21,0,6.35,0l-.56.56c.09-1.39.19-2.78.33-4.14.14-.67.28-1.34.45-2S141.75,331.83,141.94,331.17Z"/><path class="cls-24" d="M118.34,340.1s0-.17,0-.46l.05-.52a1.77,1.77,0,0,1,.16-.66c.09-.24.19-.51.32-.79a8.51,8.51,0,0,1,1.1-1.57l.71-.72a12.77,12.77,0,0,1,1.6-1.14,10.46,10.46,0,0,1,1.51-.77,9.34,9.34,0,0,1,1.57-.53s-.48.48-1.23,1.09l-1.28,1c-.48.36-.94.78-1.42,1.17a17.37,17.37,0,0,0-1.29,1.26c-.18.22-.42.4-.55.61s-.29.4-.44.58a2.2,2.2,0,0,0-.35.55l-.25.46C118.43,340,118.34,340.1,118.34,340.1Z"/><path class="cls-24" d="M214.89,274.62a7.55,7.55,0,0,1,.34,1.24,15.36,15.36,0,0,1,.27,2.72c0,.49,0,1,0,1.44l-.07,1.26a7.93,7.93,0,0,1-.19,1.27,7.16,7.16,0,0,1-.46-1.2,10.6,10.6,0,0,1-.41-2.74,15.43,15.43,0,0,1,.22-2.73A7.58,7.58,0,0,1,214.89,274.62Z"/><path class="cls-24" d="M218.11,275.64a5,5,0,0,1,.53.87c.07.13.14.28.2.44a3.15,3.15,0,0,0,.22.47,9.07,9.07,0,0,1,.44,1,11.38,11.38,0,0,1,.74,2,4.86,4.86,0,0,1,.17,1,5,5,0,0,1-.75-.7,8.08,8.08,0,0,1-1.2-1.82,11.86,11.86,0,0,1-.37-1.17,3.34,3.34,0,0,1-.09-1A5,5,0,0,1,218.11,275.64Z"/><path class="cls-24" d="M180.47,330.06a4.48,4.48,0,0,1,.24.81c.1.52.25,1.28.36,2.18l.41,3a16.18,16.18,0,0,0,.33,1.64,3.57,3.57,0,0,0,.26.74.77.77,0,0,0,.16.25l0,0h0l-.09-.06.05,0,.2.1a3.41,3.41,0,0,0,1.44.09,14.32,14.32,0,0,0,1.64-.29c1.07-.25,2.07-.56,2.92-.85s1.56-.54,2-.75.75-.35.75-.35a4.66,4.66,0,0,1-.64.55,15.9,15.9,0,0,1-1.89,1.16,17.55,17.55,0,0,1-2.91,1.21A10.74,10.74,0,0,1,184,340a4.1,4.1,0,0,1-2.11-.18l-.2-.11-.05,0-.1-.07h0v0l0,0-.11-.13a1.79,1.79,0,0,1-.32-.51,4.58,4.58,0,0,1-.32-1,12.18,12.18,0,0,1-.26-1.8c-.09-1.15-.09-2.21-.07-3.12l.07-2.19C180.5,330.37,180.47,330.06,180.47,330.06Z"/><path class="cls-24" d="M189.25,253.32s.06.36.14,1,.2,1.52.29,2.59l.15,1.73c0,.61.13,1.26.18,1.92.13,1.33.23,2.76.33,4.18s.11,2.87.12,4.22c0,.67,0,1.32,0,1.94l-.14,1.74c-.09,1.08-.22,2-.28,2.59s-.13,1-.13,1,0-.36-.09-1-.12-1.52-.15-2.59l-.06-1.72c0-.61-.1-1.26-.13-1.92-.11-1.33-.18-2.76-.25-4.18s-.15-2.87-.19-4.21,0-2.6,0-3.67.11-2,.14-2.6S189.25,253.32,189.25,253.32Z"/><path class="cls-24" d="M226.94,255.29l.54.27c.35.16.81.49,1.4.73.29.13.61.26.92.42s.7.26,1.06.42c.73.3,1.54.53,2.34.8s1.63.47,2.41.67,1.51.41,2.13.6c1.25.37,2.07.7,2.07.7a19.57,19.57,0,0,1-2.19-.06,21.78,21.78,0,0,1-2.23-.26,12.62,12.62,0,0,1-1.25-.24l-1.28-.32-1.25-.45a8.87,8.87,0,0,1-1.17-.53,7.28,7.28,0,0,1-1.06-.59c-.33-.22-.62-.43-.89-.63a8.34,8.34,0,0,1-1.16-1.09Z"/><path class="cls-34" d="M366.65,127.8c-5,3.06-9,7.37-9.42,12.68-.54,6,.54,11.69,1.36,17.41,1.09,6.8,2.45,13.05-1.36,18.22-4.62,5.71-6.8,9.79-2.18,16.32-4.62-.27-14.41.27-7.07,7.07-3.26-1.09-8.16-2.72-11.42-.82-4.35,2.72-2.72,7.62,1.63,9-8.7,1.36-5.71,9.79,2.18,8.43-1.9,5.44,4.62,10.06,9.52,7.07C348,229.41,356.14,237,360,230c4.08,4.35,10.88,6.53,14.41.82,4.35,4.62,16.59,8.7,16-1.63,3.81,2.72,21.49,9.25,20.94-.54,4.62.82,9,3.26,13.33.27,3-2.45,4.35-6.53,1.63-9.79,11.69-1.9,3.81-20.13-3-14.14,3.54-4.9,1.83-16.59-5-9.52,4.35-2.72,7.15-14.41-.89-10.06v.29h-.13c9.52-3.44,0-13.61-.54-18.5-.82-6.8.27-14.15.27-20.95s-1.36-17.14-7.89-21.22c-7.67-4.79-21.89-3.86-30.38-2A38.68,38.68,0,0,0,366.65,127.8Z"/><path class="cls-35" d="M359.55,179.27c-5.86,2.79-1.12,11.72,2.23,15.35h0c-4.47,0-18.7,1.4-9.49,8.65-9.49-2.79-12.28,6.7-2,7.26-8.37,6.42,7.54,21.49,9.77,9.77-.28,12.28,22.61,12,20.93-1.67,5.86,6.7,20.37,8.37,23.73-1.4,2.79,9.21,16.47,2.51,10-6.14,5,3.35,7-11.44-.28-14,3.91-4.19,3.35-9.77,0-14-1.67-2-8.09-6.42-7-.84,6.14-8.65-24-13.68-29.59-3.07-3.91-5.86-12.56-5-16.47.28Z"/><path class="cls-39" d="M368.43,497.68a46.17,46.17,0,0,1-5.82,4.68,5.17,5.17,0,0,1-5.06,1.24,4.26,4.26,0,0,1-2.26-2.06c-4.78,3.73-8.39,6.57-6.22,7.19,5.17,2.72,12.51-.54,16.59-3.54,1.36-1.09,5.44-6,7.07-5.71,1.86.31,2.42,3.83,2.69,5.26.08.44,0,2,.73,2s.85-2,.92-2.49c.11-.83.21-1.67.3-2.5a30.72,30.72,0,0,1,.48-4.33c.57-2.3-.18-4.4-.51-6.65-1.87,1.45-3.89,2.52-5.95,3.85A17.84,17.84,0,0,0,368.43,497.68Z"/><path class="cls-40" d="M377.59,485.68c.22-4.66,0-9.28-.1-13.94l-6.39,2.38c-.51,5.81.4,10-2.74,15.08-2.56,4.14-8.38,8.68-13.07,12.35a4.26,4.26,0,0,0,2.26,2.06,5.17,5.17,0,0,0,5.06-1.24,46.17,46.17,0,0,0,5.82-4.68,17.84,17.84,0,0,1,3-3.05c2.06-1.33,4.08-2.39,5.95-3.85a12.87,12.87,0,0,1-.13-1.31C377.16,488.15,377.53,487,377.59,485.68Z"/><path class="cls-39" d="M401.57,497.68a46.14,46.14,0,0,0,5.82,4.68,5.17,5.17,0,0,0,5.06,1.24,4.27,4.27,0,0,0,2.27-2.06c4.78,3.73,8.39,6.57,6.22,7.19-5.17,2.72-12.51-.54-16.59-3.54-1.36-1.09-5.44-6-7.07-5.71-1.86.31-2.42,3.83-2.69,5.26-.08.44,0,2-.73,2s-.85-2-.92-2.49q-.16-1.25-.29-2.5a31.07,31.07,0,0,0-.48-4.33c-.58-2.3.18-4.4.5-6.65,1.87,1.45,3.89,2.52,6,3.85A17.92,17.92,0,0,1,401.57,497.68Z"/><path class="cls-40" d="M392.41,485.68c-.22-4.66,0-9.28.1-13.94l6.39,2.38c.51,5.81-.4,10,2.74,15.08,2.56,4.14,8.38,8.68,13.08,12.35a4.27,4.27,0,0,1-2.27,2.06,5.17,5.17,0,0,1-5.06-1.24,46.14,46.14,0,0,1-5.82-4.68,17.92,17.92,0,0,0-3-3.05c-2.06-1.33-4.08-2.39-6-3.85a12.81,12.81,0,0,0,.13-1.31C392.84,488.15,392.47,487,392.41,485.68Z"/><path class="cls-40" d="M340.1,322.16c1.63,6.88,4.62,14.41,9,20.13,1.36-6.26-.82-14.39-.82-20.13Z"/><path class="cls-40" d="M438.82,240.29c0-3.54,1.36-8.7-.54-11.42-1.09-2.45-2.45-4.35-2.72-7.07-.54-3.26,1.09-6.26.82-9.25-.27-2.18-6-17.13,1.09-17.13,2.72,0,2.79,7.07,3.33,9,.82,3.54-.61,4.35,1.84,6.53,4.62,4.08,12.71,5.58,11.62,11.84-.82,3.26-7.54,10.73-8.63,13.45-1.36,2.45-.54,7.34-1.63,9Z"/><path class="cls-41" d="M451.08,208.29a6,6,0,0,0-1.19-.78c-3.28-1.63-8.05-1.75-9.85,2a9.72,9.72,0,0,0-1,3.51,7.17,7.17,0,0,0,.62,3.66c.26.44.83.49,1.07.83a5.23,5.23,0,0,1,.15,1.65c.07.9.34,2.8,1.65,2.68a14.56,14.56,0,0,1-.16,1.81,13.19,13.19,0,0,0,.18,2.15,2,2,0,0,0,.78,1.55c.19.1.59,0,.74.15s.09.28.11.57a1.22,1.22,0,0,0,1,1.21,1.36,1.36,0,0,0,1.75-.77c.62-1,1.18-2.44,2.55-2.6,1-.11,1.63.47,2.51-.22a11.26,11.26,0,0,0,2-2.49,7.93,7.93,0,0,0,1-4.33C455.13,215.18,454.07,210.79,451.08,208.29Z"/><path class="cls-42" d="M442.54,221.85a3.3,3.3,0,0,1,.1.64c0,.22,0,.47,0,.74l0,.42c0,.11.06.31.09.47.07.34.13.71.19,1.1,0,.17.07.45.09.55a4.13,4.13,0,0,0,.16.56,1.62,1.62,0,0,0,.22.4l.15.1,0,0h0l-.09,0h0a.63.63,0,0,0,.14,0h.06l.21,0a1.14,1.14,0,0,1,.38.13l.05,0h0l.1.09h0l0,0,.06.06a.88.88,0,0,1,.19.58,1.3,1.3,0,0,0,0,.19s0,.07,0,0l0,.17c0,.31.09.25.14.35a1.38,1.38,0,0,1,.13.12l.2.09a.93.93,0,0,0,.81,0,2.4,2.4,0,0,0,.66-.77,10.84,10.84,0,0,1,.66-.93,3.92,3.92,0,0,1,.72-.71l.36-.22.34-.12a1.46,1.46,0,0,1,.48-.07h.17l-.15.07a1.71,1.71,0,0,0-.4.21,2.22,2.22,0,0,0-.5.46,5.06,5.06,0,0,0-.47.75l-.47,1a2.79,2.79,0,0,1-.84,1.18,1.89,1.89,0,0,1-1.74.19l-.42-.18a3.55,3.55,0,0,1-.39-.32,1.85,1.85,0,0,1-.42-.88l0-.17a1.14,1.14,0,0,1,0-.36.66.66,0,0,1,0-.15.33.33,0,0,0,0,.23.3.3,0,0,0,.07.08l0,0-.06-.06,0,0h.05s.15.15.15.08h0s.1,0,0,0l-.15,0-.29,0-.18-.05h0l-.1,0h0l0,0-.1-.08a4.13,4.13,0,0,1-.36-.33,2.59,2.59,0,0,1-.35-.78,3.49,3.49,0,0,1-.12-.67c0-.31,0-.44,0-.66,0-.4,0-.77,0-1.12,0-.18,0-.36,0-.52l.1-.47.21-.69a2.54,2.54,0,0,0,.1-.46Z"/><path class="cls-42" d="M441.09,208l-.35.59a4,4,0,0,0-.32.69,7.64,7.64,0,0,0-.33.92c-.13.36-.18.73-.3,1.11a10.6,10.6,0,0,0-.18,1.24,11.14,11.14,0,0,0,0,1.36,8,8,0,0,0,.18,1.34,2.16,2.16,0,0,0,.17.63l.12.29.06.15v.05l-.06-.08h0l.06.07c.08.08.17.22.22.2s.06,0,.21.13a1.65,1.65,0,0,1,.38.28c.07.07.31.14.37.21,0-.09.23.13.23.11h-.17l.06,0,.11,0v.08c0,.17-.06.61-.06.85s-.1.44-.11.65a8.47,8.47,0,0,0,0,1.13,2.3,2.3,0,0,0,.57,1.49,1.14,1.14,0,0,0,.59.24,1.15,1.15,0,0,1-.72,0,2.36,2.36,0,0,1-1.12-1.55,5.8,5.8,0,0,1-.26-1.24c0-.21,0-.43,0-.66a1.71,1.71,0,0,1,0-.23V218l-.08-.16,0-.08,0,0v0h0l.05.1-.06,0a.79.79,0,0,0-.21-.12,3.61,3.61,0,0,1-.41-.24,1.49,1.49,0,0,1-.31-.29l-.06-.07h0l-.07-.09v0l0,0-.09-.19-.17-.39a3,3,0,0,1-.24-.79,8.91,8.91,0,0,1-.17-1.58,8.54,8.54,0,0,1,.11-1.48,7.23,7.23,0,0,1,.36-1.37,10.06,10.06,0,0,1,.51-1.13,5.33,5.33,0,0,1,.56-.89,3.23,3.23,0,0,1,.52-.61Z"/><path class="cls-42" d="M444,228.87s0-.18-.11-.51a5.17,5.17,0,0,1-.15-1.36c0-.29,0-.61,0-1s.12-.67.2-1a4.84,4.84,0,0,1,.32-1.07,10.73,10.73,0,0,1,.45-1.06l.59-1A7.17,7.17,0,0,1,446,221a7.64,7.64,0,0,1,1.45-1.33,6.39,6.39,0,0,1,1.21-.68l.48-.21-.35.39c-.21.26-.57.54-.9,1-.17.22-.35.45-.54.68a7.2,7.2,0,0,0-.55.78c-.18.28-.39.55-.56.85l-.51.92a9.77,9.77,0,0,0-.44,1,6.14,6.14,0,0,0-.38.95c-.1.32-.23.62-.33.91s-.14.57-.22.82a4.79,4.79,0,0,0-.18.73l-.1.58C444,228.68,444,228.87,444,228.87Z"/><path class="cls-42" d="M442.63,222.75s0-.16,0-.44a4.66,4.66,0,0,1,0-1.17,7.8,7.8,0,0,1,.36-1.64,7,7,0,0,1,.33-.87c.13-.29.25-.59.41-.87a11.11,11.11,0,0,1,1-1.59,10,10,0,0,1,1.09-1.23,8.58,8.58,0,0,1,.9-.75l.36-.25s-.06.15-.19.4-.32.59-.55,1-.51.87-.77,1.38-.59,1-.86,1.57a8.76,8.76,0,0,0-.42.8c-.12.27-.3.52-.4.78-.24.52-.48,1-.66,1.41-.08.21-.2.39-.26.58l-.18.47C442.7,222.6,442.63,222.75,442.63,222.75Z"/><path class="cls-42" d="M440.88,218.34a8.39,8.39,0,0,1-.16-1.53,8.26,8.26,0,0,1,.59-3.37,6.31,6.31,0,0,1,.46-.86,4.42,4.42,0,0,1,.6-.74,3.92,3.92,0,0,1,1.4-.93,3.15,3.15,0,0,1,.63-.18,2.07,2.07,0,0,1,.5-.06h.43l-.36.22a3.49,3.49,0,0,0-.4.25c-.14.11-.31.2-.47.35a6,6,0,0,0-1.73,2.41,26.52,26.52,0,0,0-1,3A14.63,14.63,0,0,1,440.88,218.34Z"/><path class="cls-42" d="M441.54,233.49a5.54,5.54,0,0,1-.13-1.08c0-.16,0-.33,0-.51s0-.36,0-.54c0-.37,0-.75,0-1.13a10.65,10.65,0,0,1-.06-1.15,5.05,5.05,0,0,0,0-.54,4.77,4.77,0,0,1,0-.49,6.2,6.2,0,0,1,0-1.08,4.93,4.93,0,0,1,.6.91,3.24,3.24,0,0,1,.41,1c.09.4.15.83.21,1.27a12.08,12.08,0,0,1-.12,1.3,3.33,3.33,0,0,1-.31,1A5.49,5.49,0,0,1,441.54,233.49Z"/><path class="cls-43" d="M357.59,295.32c-.48,2-1,3.94-1.34,5.92-1.49,7.15-.3,23.37-6,23.22-2.08-.05-6.85.59-8.63-.6-2.68-1.79-2.08-5.66-2.08-9.23-.59-7.74,1.19-14,2.68-21.73.6-2.68.6-6,1.19-8.93.59-2.08,1.49-4.17,2.08-6.55.3-1.19.6-3.57.89-4.47,2.09-3.87,3.27-4.47,3.87-9.23.6-4.47.89-8.63,1.19-13.1.89-8.93,3.57-18.76,6-27.39,2.38-8.93,4.76-11,13.4-12.21,3.4-.38,19-.62,23.16.07,4.51.75,8.54-.59,12.87,1.18,5.66,2.31,9.51,16.33,10.77,19.91,3.57,10.19,3,8.61,5,13.45a78.14,78.14,0,0,0,8.3,14.26c3.58-9.59,3.85-16.16,6.09-24.82,1.5,2.06,3.15,2.86,4.86,4s4.79,1.62,6.69,2.25c.4,4.22-9.33,39.87-14.06,39.65-3-.14-10.23-11.19-12.21-14-3.32-4.73-14-21.12-15.48-23.22.07,5.81-1.1,14.07-.31,19.95s2.93,11.67,4.49,17c1.2,4.08,3.54,10.6,1.72,14.9-2.63,6.22-15.18,8.67-21,8.93-9.38.42-18.57-4.53-26.59-8.34a12,12,0,0,1-2.57-1.59Z"/><path class="cls-31" d="M336.9,313.75s.3.12.8.35l.91.42a7.39,7.39,0,0,0,1.2.45c.44.15.91.3,1.4.48s1.06.25,1.62.4a12.27,12.27,0,0,0,1.74.36l1.81.28,1.83.14a14.74,14.74,0,0,0,1.78.05c.58,0,1.14,0,1.67,0s1-.09,1.5-.12a8.53,8.53,0,0,0,1.27-.14l1-.16.87-.12s-.29.13-.8.34l-.94.36c-.18.07-.38.15-.58.22l-.67.15c-.47.11-1,.22-1.52.32a15.46,15.46,0,0,1-1.72.17,11.09,11.09,0,0,1-1.86,0l-1.92-.11-1.89-.34a10,10,0,0,1-1.8-.47c-.57-.19-1.13-.35-1.64-.57s-1-.48-1.41-.7a5.21,5.21,0,0,1-1.11-.67l-.8-.59C337.15,314,336.9,313.75,336.9,313.75Z"/><path class="cls-39" d="M356.39,285.51C352.94,297,345.8,308.3,346.49,321c.23,4.14.69,8.06.69,12.43,0,5.76,2.3,10.36,3.22,15.88,2.07,11.28,4.46,16.81,5.85,28.09.92,7.14.83,8.52,1.52,15.88.23,3.45.46,16.12.69,19.57.23,3.91,1.38,10.13,1.61,14,2.46,12.46,6.56,25.57,7.14,38.21.07,1.52-.55,2.14-.76,3.46a4.19,4.19,0,0,0-.17,1.61c.17.78,1,.85,1.17,1.45.42,1.35,0,1.77,0,3.15-.14,6.53,11,5.39,14.43,2.53V380.36l-3-50.88s3.41.92,5.8-.92S387,409.14,387,409.14q.69,23.27,1.36,46.55c.12,4,.23,8.09.35,12.13,0,1.19,0,2.39.1,3.58.24,3.65,3.71,5.48,7.18,6.36,2,.51,7.11,1.45,8.7-.29.88-1,.5-2.58.51-3.86s-.8-2.89-.7-3.68c.16-1.32,1.43-2.25,1.4-3.93a20.17,20.17,0,0,0-.93-5.74s7.6-40.75,2.76-60.32c0,0-1.38-6.22,3.91-24.4s15.65-63.77,1.38-84.26l-7.14-9.44Z"/><path class="cls-44" d="M373.43,326l.47.38a9.63,9.63,0,0,0,1.25.88,10,10,0,0,0,.88.49c.31.17.67.29,1,.44s.73.25,1.12.35a10.12,10.12,0,0,0,1.18.26,13.36,13.36,0,0,0,2.38.15c.38,0,.76,0,1.1-.1a10,10,0,0,0,1-.17,10.92,10.92,0,0,0,1.48-.41l.57-.2-.46.4a3.59,3.59,0,0,1-.57.4,4.7,4.7,0,0,1-.8.44,5.74,5.74,0,0,1-1,.39,8,8,0,0,1-1.19.27,8.76,8.76,0,0,1-1.31.08,8.06,8.06,0,0,1-2.67-.43,8.41,8.41,0,0,1-1.22-.49,7.58,7.58,0,0,1-1.88-1.34,4.49,4.49,0,0,1-.62-.68,3.41,3.41,0,0,1-.4-.57Z"/><path class="cls-44" d="M380.57,324.42s0-.3-.1-.83-.14-1.29-.19-2.2c0-.45-.05-.95-.08-1.47s-.1-1.06-.13-1.63c-.09-1.13-.15-2.33-.21-3.53s-.18-2.41-.23-3.54c0-.56,0-1.12-.07-1.63s-.06-1-.08-1.46c0-.91,0-1.67-.06-2.2s0-.84,0-.84.09.29.22.81.31,1.26.49,2.16a29.19,29.19,0,0,1,.51,3.08c.14,1.13.25,2.35.36,3.56s.08,2.44.07,3.59a26.35,26.35,0,0,1-.14,3.11c-.07.91-.18,1.67-.24,2.19S380.57,324.42,380.57,324.42Z"/><path class="cls-44" d="M383.33,304.62s.07.28.17.76a19.12,19.12,0,0,1,.35,2c0,.43.09.89.12,1.38s0,1,0,1.55a15.87,15.87,0,0,1-.06,1.65l-.16,1.7-.29,1.68a15.14,15.14,0,0,1-.37,1.61,22.26,22.26,0,0,1-.89,2.78,20.47,20.47,0,0,1-.84,1.89c-.22.45-.36.7-.36.7s0-.28.15-.77.27-1.17.42-2c.08-.41.17-.86.27-1.33s.16-1,.27-1.48c.21-1,.34-2.13.51-3.23s.28-2.2.35-3.25c0-.52.12-1,.12-1.5s0-.93.08-1.35c.07-.84.06-1.56.09-2S383.33,304.62,383.33,304.62Z"/><path class="cls-44" d="M410.26,301.4l.31.49.33.57a3.5,3.5,0,0,0,.47.7c.18.24.38.49.57.77s.48.52.71.82c.47.58,1.08,1.12,1.64,1.7l1.75,1.63c.56.52,1.09,1,1.54,1.46a20.12,20.12,0,0,1,1.43,1.53,18.64,18.64,0,0,1-1.84-1,20.45,20.45,0,0,1-1.78-1.2,12,12,0,0,1-1-.75l-.95-.83-.87-.93a7,7,0,0,1-.76-1,8.75,8.75,0,0,1-.64-1c-.17-.34-.32-.66-.45-1a2.78,2.78,0,0,1-.28-.82l-.14-.65Z"/><path class="cls-44" d="M348.34,308.3l.51-.06a3.51,3.51,0,0,0,.56-.11,5.72,5.72,0,0,0,.68-.2c.25-.07.5-.22.78-.31s.55-.28.83-.44a18.23,18.23,0,0,0,1.71-1.13c1.13-.84,2.22-1.76,3-2.49l1.35-1.25a7.05,7.05,0,0,1-.85,1.67,10.79,10.79,0,0,1-1.19,1.51,12.86,12.86,0,0,1-1.65,1.48c-.32.21-.62.43-1,.62a7.57,7.57,0,0,1-1,.49,7.31,7.31,0,0,1-1,.34,5.31,5.31,0,0,1-.93.15,3.52,3.52,0,0,1-.8,0,2.42,2.42,0,0,1-.59-.11Z"/><path class="cls-44" d="M398.29,315.21l.17,2.31c.08,1.47.25,3.57.37,6.1s.29,5.47.4,8.62l.33,9.89c0,3.37-.05,6.74-.08,9.9s-.13,6.11-.17,8.64-.16,4.63-.21,6.11l-.11,2.32-.11-2.31c0-1.47-.16-3.58-.21-6.1s-.16-5.47-.17-8.62,0-6.52-.08-9.88-.12-6.73-.18-9.89,0-6.11,0-8.63,0-4.63.05-6.11S398.29,315.21,398.29,315.21Z"/><path class="cls-44" d="M397.83,395.79l.28.82a14,14,0,0,1,.67,2.37,28.36,28.36,0,0,1,.55,3.81c.11,1.48.17,3.15.14,5s-.08,3.79-.06,5.86,0,4.28,0,6.55c0,4.54-.07,9.39-.1,14.23s-.19,9.69-.29,14.23-.29,8.78-.4,12.41-.29,6.66-.37,8.78l-.17,3.33s0-1.21-.05-3.33-.07-5.15,0-8.78,0-7.87.05-12.41.09-9.38.13-14.23.17-9.69.26-14.23c.06-2.27.11-4.46.16-6.54s.18-4.06.25-5.87.11-3.47.08-4.94a27.84,27.84,0,0,0-.34-3.78,15.83,15.83,0,0,0-.51-2.4Z"/><path class="cls-44" d="M358.47,324.42l.36,2.78a28.68,28.68,0,0,0,.49,3.17c.25,1.22.47,2.58.81,4.07l1,4.83.53,2.65c.17.91.29,1.84.45,2.78l1.81,11.82.81,6c.25,2,.54,3.94.85,5.82s.56,3.7.82,5.43.45,3.37.79,4.86c.6,3,1,5.49,1.37,7.24l.49,2.76-.71-2.71c-.43-1.73-1.08-4.19-1.79-7.17-.39-1.48-.65-3.12-1-4.84s-.66-3.54-1-5.42-.65-3.83-.93-5.81l-.89-6-1.66-11.84c-.26-1.89-.52-3.71-.81-5.43l-.82-4.86c-.29-1.5-.42-2.91-.59-4.14a29.17,29.17,0,0,1-.29-3.2Z"/><path class="cls-44" d="M368.37,408.22l.28,2.2c.15,1.4.42,3.4.65,5.8s.54,5.2.81,8.21.53,6.21.79,9.42.47,6.42.65,9.43.31,5.83.44,8.24.17,4.42.23,5.83.06,2.21.06,2.21l-.28-2.2c-.15-1.4-.42-3.4-.65-5.8s-.55-5.2-.81-8.21-.53-6.21-.79-9.42-.47-6.42-.65-9.43-.31-5.83-.44-8.24-.17-4.42-.23-5.83S368.37,408.22,368.37,408.22Z"/><path class="cls-40" d="M367.83,132.87c-.27,6,3.54,11.14-1.35,16.58-1.36,1.63-3.78,2-4.6,3.65-.54,1.36.25,5.78.25,7.14a61.22,61.22,0,0,1,1.08,9.61c-3.81,0-5.71-1.36-7.89,2.18-1.63,2.72-1.36,7.07.27,9.79,2.18,4.35,7.83,3.16,7.89,3.81.23,2.74,2.94,6.62,4.89,8.7,3.46,3.69,8.08,7.53,12.16,8.9,1.68.56.65,3,1.21,8.88.35,3.68,1.13.55,5.14,1.27,6.82,1.22,4.41,0,5-4.5.14-1.11-.1-3.22.2-5,11.42-1.63,19-8.16,19.58-20.4,4.62-.54,8.16-1.9,9.25-7.07,1.36-5.17-1.63-9.52-7.07-9-.27-4.62.82-12.24-1.36-16.32-1.36-2.72-3.81-3.54-4.9-7.34-.82-3-.21-4.06-.85-7.23-7.34,2.18-14.2,4.39-23,3.73-4.37-.33-9.63.1-13.84-4.67Z"/><path class="cls-35" d="M371.37,149.45s0-.1.1-.26a1.57,1.57,0,0,1,.41-.61,4,4,0,0,1,.82-.67,6.55,6.55,0,0,1,3.11-1,4.38,4.38,0,0,1,1,.05,5,5,0,0,1-.81.58,12.76,12.76,0,0,1-1.86.88c-.35.11-.67.26-1,.35s-.64.2-.86.29l-.36.11-.28.14Z"/><path class="cls-35" d="M397.21,146.46l.24-.1a2.8,2.8,0,0,1,.65-.18,3.55,3.55,0,0,1,1,0,2.62,2.62,0,0,1,.54.08l.55.16.51.26a2.13,2.13,0,0,1,.46.33,2.74,2.74,0,0,1,.65.75,2.21,2.21,0,0,1,.27.64,2.41,2.41,0,0,1,.06.26l-.24-.12c-.15-.07-.32-.21-.55-.31A3.45,3.45,0,0,1,401,148c-.11-.08-.26-.11-.39-.18s-.55-.24-.84-.37l-1.68-.63A6.88,6.88,0,0,1,397.21,146.46Z"/><path class="cls-42" d="M388,163.59a18.82,18.82,0,0,1,.45,2.88c.05.48.12.94.19,1.41,0,.23.1.45.15.67a2.93,2.93,0,0,0,.18.64,3.3,3.3,0,0,0,.25.6c.11.18.22.36.31.54,0,0,.17.19.16.13l.16.08a2.8,2.8,0,0,0,.58.11,8.53,8.53,0,0,1,1.52.22,2.37,2.37,0,0,1,.83.43,2.25,2.25,0,0,1,.57.75l0-.07a3.87,3.87,0,0,1,.4.81,2.65,2.65,0,0,1,.13.92,2.81,2.81,0,0,1-.66,1.63,4,4,0,0,1-1.27,1,5.22,5.22,0,0,1-1.47.54,8,8,0,0,0,1.24-.87,4.74,4.74,0,0,0,.92-1.1,2.2,2.2,0,0,0,.32-1.23,2.29,2.29,0,0,0-.15-.58,2.94,2.94,0,0,0-.32-.54h0l0-.07a1.24,1.24,0,0,0-.78-.58,10.13,10.13,0,0,0-1.34-.16,3.81,3.81,0,0,1-.84-.19,1.94,1.94,0,0,1-.47-.26,1.73,1.73,0,0,1-.36-.36c-.13-.24-.26-.48-.39-.73a4.35,4.35,0,0,1-.25-.76,3.67,3.67,0,0,1-.16-.76c0-.25-.08-.51-.07-.76a12.58,12.58,0,0,1,0-1.48c0-.49.08-1,.12-1.45S387.93,164.08,388,163.59Z"/><path d="M376.33,163.66c-1,.8-1,3.42-.33,4.28,1.08,1.44,2.14,1.61,2.71-.33.34-1.18.18-4.5-1.89-4.18A1,1,0,0,0,376.33,163.66Z"/><path d="M400.91,163.66c1,.8,1,3.42.33,4.28-1.08,1.44-2.14,1.61-2.71-.33-.35-1.18-.18-4.5,1.89-4.18A1,1,0,0,1,400.91,163.66Z"/><path class="cls-31" d="M348.51,272.66a7.1,7.1,0,0,1,1.23.15c.18,0,.37.07.57.13a6,6,0,0,0,.62.1c.43.05.86.16,1.3.25s.92.13,1.34.23.84.17,1.19.26a7.31,7.31,0,0,1,1.18.37,6.76,6.76,0,0,1-1.21.29,5.35,5.35,0,0,1-1.26.09c-.46,0-1-.06-1.45-.11s-1-.27-1.43-.43a2.85,2.85,0,0,1-.62-.26c-.18-.1-.35-.21-.5-.31A7.08,7.08,0,0,1,348.51,272.66Z"/><path class="cls-31" d="M347,276.83a9.45,9.45,0,0,1,1.4-.34c.42-.08.92-.14,1.43-.21s1.07-.1,1.62-.14,1.09-.11,1.61-.12c.26,0,.52,0,.75,0s.46,0,.67-.05a10,10,0,0,1,1.44,0,8.87,8.87,0,0,1-1.3.64,6,6,0,0,1-1.41.44c-.53.11-1.1.19-1.67.27a15.22,15.22,0,0,1-3.14-.14A9.52,9.52,0,0,1,347,276.83Z"/><path class="cls-13" d="M389.23,187.71a32.5,32.5,0,0,0,6-.56c2.39-.42,3.3-1.06,3.6-2.74a120.24,120.24,0,0,1-20.26-.28C380.29,187.85,385.12,187.71,389.23,187.71Z"/><path class="cls-14" d="M400.06,184.35l-1.26.06c-.3,1.68-1.21,2.32-3.6,2.74a32.47,32.47,0,0,1-6,.56c-4.11,0-9,.14-10.7-3.58a8.76,8.76,0,0,1-1.21-.14v1.36C378.47,196.22,402.24,196,400.06,184.35Z"/><path class="cls-45" d="M384.25,219.67c.92,4.14-2.07,10.13-3,14.27-.92,5.76,1.15,13.35,6,17,3.68-5.76,5.07-9,3.45-15.43-1.38-5.53-2.53-11.05-3.91-16.58Z"/><path class="cls-42" d="M364.47,188.53a15.62,15.62,0,0,1-.84-1.68c-.11-.26-.24-.53-.35-.83s-.18-.64-.25-1c-.16-.69-.32-1.45-.44-2.19s-.13-1.49-.15-2.2a13.61,13.61,0,0,1,0-1.92,15.36,15.36,0,0,1,.23-1.87,15.8,15.8,0,0,1,.43,1.83l.31,1.87c.12.68.2,1.41.28,2.14,0,.37.1.71.15,1.06s.09.7.13,1,.07.67.09,1l.16.89A15.87,15.87,0,0,1,364.47,188.53Z"/><path class="cls-42" d="M411.35,185.27s0-.18,0-.49c0-.15,0-.34,0-.56s0-.45,0-.71c0-.5,0-1.09,0-1.73s0-1.32,0-2c0-1.36,0-2.74.1-3.78a16.42,16.42,0,0,1,.2-1.74,11.85,11.85,0,0,1,.45,1.7,16.15,16.15,0,0,1,.27,1.77c.08.65.09,1.35.12,2a18.57,18.57,0,0,1-.12,2.06,10.53,10.53,0,0,1-.34,1.79,5.93,5.93,0,0,1-.43,1.2C411.44,185.11,411.35,185.27,411.35,185.27Z"/><path class="cls-33" d="M362.13,183.89a2,2,0,0,0-1.54,0c-1.16.52-1,2-1.29,3a8.14,8.14,0,0,0,.42,5.18c1.77,3.8,3.81,1.22,3.94-1.5.09-1.71.6-4.31-.44-5.82A2.52,2.52,0,0,0,362.13,183.89Z"/><path class="cls-33" d="M413,182.8a2,2,0,0,1,1.54,0c1.16.52,1,2,1.29,3a8.14,8.14,0,0,1-.42,5.18c-1.77,3.8-3.81,1.22-3.94-1.49-.09-1.71-.6-4.31.44-5.82A2.52,2.52,0,0,1,413,182.8Z"/><path class="cls-46" d="M387.23,246.46c-.15.21-.3.41-.45.61-4.14-6-6.29-12.09-8.52-20.26-1.76-6.47-1.64-10.26-3-16.71l-10.74,1.58c2.07,11.51,4.09,19.26,1.79,31-.46,2.76-2.53,5.76-4.14,8.29-1.84,3.22-2.53.23-2.53,5.75,0,5.76,0,11.28-1.15,16.81-.92,4.14-4.14,10.82-3.22,14.73.69,4.37,6,10.36,8.75,13.81,2.76,3.68,9,10.82,13.12,7.83,4.37-3.22,7.14-10.82,8.52-15.88l.1.14C386.16,279.47,388.09,261.24,387.23,246.46Z"/><path class="cls-47" d="M413.49,284.59c-1.84-5.53-4.14-9.67-4.37-15.66-.23-4.6-.46-9-.69-13.35-.46-5.76-5.07-7.83-5.76-14-1.38-10.13.53-19.3.76-31.44l-8.25-.46v1a81.21,81.21,0,0,1-1.62,18.2c-.88,5.29-2.91,12.91-6.32,17.59.85,14.78-1.08,33-1.5,47.71,3.85,5,6.39,10.72,11.41,15.06,3,2.76,4.14,2.07,7.14-.92a49.67,49.67,0,0,0,5.52-8.06C412.57,295.41,415.56,289.89,413.49,284.59Z"/><path class="cls-48" d="M382.81,211.69c.23,2.3-2,9.13,2.59,9.36,4.37.23,6.54-9.27.06-9.27Z"/><path class="cls-13" d="M385.46,210.69c-3.15.59-7.77-2.81-8.42-1-1.23,3.38,1.45,11.62,3.06,14.15,1.38-4.14,4.49-6.86,5-11.24Z"/><path class="cls-13" d="M392.91,208.58c-1.14,2.29-5.14,2.08-7.45,1.85,0,3.22,3.39,11.38,6.39,12.76,1.15-5.76,2.53-7.73,2.53-14.61Z"/><path class="cls-31" d="M430.59,259.68s0,.18.06.48a8,8,0,0,1,0,1.27,33.65,33.65,0,0,1-.44,3.76l-.13,1c-.05.33-.06.64-.09.95a7.3,7.3,0,0,0-.05.89c0,.28,0,.55,0,.8,0,.51.09.91.1,1.22l0,.49s-.09-.15-.24-.42a5.48,5.48,0,0,1-.53-1.18c-.07-.26-.14-.54-.2-.85a4.23,4.23,0,0,1-.1-1,6.5,6.5,0,0,1,0-1l.1-1.06a25.66,25.66,0,0,1,.92-3.68l.38-1.2C430.52,259.84,430.59,259.68,430.59,259.68Z"/><path class="cls-31" d="M435.77,240.19l.31.53a4.21,4.21,0,0,0,.38.58,5.83,5.83,0,0,0,.54.68,10.48,10.48,0,0,0,1.58,1.46c.31.24.65.47,1,.69s.72.43,1.09.64c.75.41,1.53.75,2.27,1.07s1.46.57,2.08.79l2.1.71a10.16,10.16,0,0,1-2.25-.07,13.45,13.45,0,0,1-2.27-.48,14.57,14.57,0,0,1-2.48-1c-.39-.24-.8-.45-1.16-.73a8.82,8.82,0,0,1-1-.84,7.23,7.23,0,0,1-1.47-1.86,4.09,4.09,0,0,1-.39-.87,3.12,3.12,0,0,1-.2-.69Z"/><path class="cls-31" d="M406.17,243.89a17.3,17.3,0,0,1-.23-2,12.09,12.09,0,0,1,0-2c0-.74.1-1.54.21-2.32s.28-1.55.44-2.27a14.47,14.47,0,0,1,.56-1.94,16.87,16.87,0,0,1,.74-1.84,17.82,17.82,0,0,1-.09,2l-.22,2c-.07.72-.19,1.49-.3,2.25s-.2,1.52-.34,2.23-.27,1.38-.35,2A17.36,17.36,0,0,1,406.17,243.89Z"/><path class="cls-31" d="M359.55,253s0-.27,0-.75,0-1.16-.07-2c0-.4,0-.83-.06-1.29l-.1-1.45c-.06-1-.13-2.08-.2-3.15-.14-2.15-.23-4.31-.2-5.94,0-.81.08-1.5.09-2s.07-.75.07-.75.07.27.15.74l.34,1.94c.26,1.6.54,3.75.69,5.92,0,1.09.11,2.17.06,3.2a22.42,22.42,0,0,1-.2,2.8,15.85,15.85,0,0,1-.37,1.94C359.63,252.75,359.55,253,359.55,253Z"/><circle class="cls-33" cx="384.25" cy="252.94" r="1.96"/><circle class="cls-33" cx="384.25" cy="267.08" r="1.96"/><circle class="cls-33" cx="383.16" cy="283.4" r="1.96"/><path class="cls-47" d="M360,267.49s.06.2.14.54a8.45,8.45,0,0,0,.46,1.33,8.76,8.76,0,0,0,.4.83c.14.29.35.57.52.88a14,14,0,0,0,1.39,1.72,17.52,17.52,0,0,0,1.65,1.5c.57.44,1.11.84,1.61,1.15s.92.57,1.23.74l.48.28-.56-.06a7.24,7.24,0,0,1-1.44-.36,9.23,9.23,0,0,1-1.9-.92,10.72,10.72,0,0,1-1.9-1.54,11.86,11.86,0,0,1-.79-1,8.26,8.26,0,0,1-.64-1,7.19,7.19,0,0,1-.44-1.05,5.05,5.05,0,0,1-.24-1,4,4,0,0,1-.08-.85,2.89,2.89,0,0,1,0-.65C359.92,267.69,360,267.49,360,267.49Z"/><path class="cls-47" d="M359.68,274a9.83,9.83,0,0,1,1,1.07,20.4,20.4,0,0,1,1.8,2.59,20.1,20.1,0,0,1,1.38,2.83,9.69,9.69,0,0,1,.44,1.4,9.71,9.71,0,0,1-1-1.07,20.15,20.15,0,0,1-1.8-2.59,20.38,20.38,0,0,1-1.38-2.83A9.8,9.8,0,0,1,359.68,274Z"/><path class="cls-49" d="M407.28,267.49a10.31,10.31,0,0,1-.39,1.46,7.24,7.24,0,0,1-.59,1.41c-.26.5-.58,1-.9,1.54a17.13,17.13,0,0,1-2.13,2.5,10.29,10.29,0,0,1-1.16,1,10.38,10.38,0,0,1,.64-1.37c.21-.39.48-.84.76-1.31s.62-1,.95-1.43.63-1,1-1.39c.15-.22.34-.41.47-.64s.28-.41.42-.59A10.27,10.27,0,0,1,407.28,267.49Z"/><path class="cls-50" d="M373.67,130.34c4.12,3.64,10.13,6.18,15.84,5.23,2.53-.48,7-3.8,2.22-4.91,2.69,1,10.29-1.27,4.91-2.85,3.64,1.27,7.6-1.27,3-3.48a14.07,14.07,0,0,0-6.65-1.11c-4.28.16-11.56.48-15.2,2.85a19.1,19.1,0,0,1,1.74,1.9c-1.27,1-3.48,1.43-5.07,1.9Z"/><path class="cls-51" d="M510.49,229.85c-2.45,1.22-9.48.31-13.45.61-10.7.92-11.31,7.34-14.67,16.2-2.75,7-7.95,13.45-11.62,20.17-3.67,7-9.78,12.84-11.92,20.48-.61,2.75-2.75,11.31,1.53,12.53,4,1.22,7.64-7.34,9.48-9.78,5.5-8.56,12.23-18.05,15.9-27.53.31,6.73-1.22,15.91-1.83,22.64-.31,4.58-.61,8.86-.61,13.14,0,3.67-1.53,6.72-1.83,9.78-1.22,14.37,28.73,13.45,37.6,12.23,5.81-.61,12.53,0,17.42-2.75,9.17-4.89,4.8-8.95,3.89-15.67-.61-6.11.73-30,.11-38,5,11.84,15.15,24.29,17.22,30.74,0,0-1.23,4.65-6.7,15.2a65.1,65.1,0,0,1-11.16,15.94c3.36,2.45,3.34,7.48,7.31,9.93,4.58-5.81,24.48-35.91,24.17-41.11-.61-4.89-7-13.91-9.47-17.88-3.36-5.2-21.49-46.1-29.35-46Z"/><path class="cls-52" d="M539.77,326.17c3.07-2,6.81,3.73,7.39,6.22.51,2.12-.81,3.73-2.71,2.27a12.85,12.85,0,0,1-3.81-5.05c-.37-.88-.59-1.76-1-2.64Z"/><path d="M526.21,145.43c0-.72.72-2.16.72-3.6h0c15.85,6.48,13.69,31,6.48,42.51-5-9.37-5-25.94-6.48-36Z"/><path class="cls-27" d="M451.45,254.56a13.73,13.73,0,0,0-2.38-8.31c-3.09-4.51-2.14-7.12-1.9-12.82.24-5.22-.24-8.07-2.61-12.82a26.18,26.18,0,0,1-3.09-11.16c3.56-.71,5.22,8.31,6.89,10.68,0-3.8-2.85-20.18,2.38-19.47-.71-3.09,3.63-5.27,4.1-1.71,6.24-2.48,5.39,15.31,5.16,18.8,2.85-5.94,4.1,5.64,4.1,7.06,0,3.8-.54,7.9-.78,11.7-.24,5.22-4,6.41-6.41,10.68-1.42,2.61-1.19,6.89-.47,10Z"/><path class="cls-12" d="M454.29,243.4s-.16-.42-.4-1.18a19.88,19.88,0,0,1-.75-3.22,7.4,7.4,0,0,1,0-2.31v0h0l0-.08v0l0-.07.06-.14.12-.27.24-.55a7.26,7.26,0,0,1,.86-1.12,9.11,9.11,0,0,1,2.3-1.51,7.29,7.29,0,0,0,2.09-1.35,3.53,3.53,0,0,0,.81-2.13,18.42,18.42,0,0,0,.13-2.52c0-1.67-.07-3.25-.12-4.6a27.1,27.1,0,0,1,.07-3.29,6.84,6.84,0,0,1,.12-.92l.06-.32s0,.11,0,.33,0,.52,0,.91c0,.79.19,1.9.35,3.24s.4,2.91.49,4.62a15.79,15.79,0,0,1,0,2.69,4.6,4.6,0,0,1-1.09,2.79,8.26,8.26,0,0,1-2.42,1.53,9.08,9.08,0,0,0-2.1,1.25c-.27.26-.47.52-.72.8l-.53,1a6.74,6.74,0,0,0-.19,2,29.18,29.18,0,0,0,.33,3.22Z"/><path class="cls-12" d="M450.73,200.66l.12.18a2.22,2.22,0,0,1,.3.53,12.62,12.62,0,0,1,.69,2.08,46.14,46.14,0,0,1,1,6.48c.23,2.37.34,4.74.39,6.52s.07,3,.07,3-.1-.28-.25-.79-.32-1.23-.48-2.12c-.34-1.76-.64-4.12-.87-6.47s-.4-4.71-.55-6.48a19.58,19.58,0,0,0-.25-2.11,3.22,3.22,0,0,0-.15-.59Z"/><path class="cls-12" d="M454.84,199s.09.27.21.76.31,1.17.48,2c.36,1.67.76,3.9,1.05,6.15s.35,4.54.37,6.25c0,.85,0,1.57,0,2.07s0,.79,0,.79-.08-.28-.19-.77-.27-1.18-.42-2c-.31-1.68-.62-3.91-.85-6.16-.12-1.13-.27-2.25-.36-3.31s-.17-2.05-.21-2.9,0-1.57-.06-2.07S454.84,199,454.84,199Z"/><path class="cls-12" d="M447.56,221A14.34,14.34,0,0,1,449,220a9,9,0,0,1,1.58-.89c.61-.29,1.27-.56,1.94-.83s1.34-.45,2-.63,1.24-.33,1.77-.42A14.3,14.3,0,0,1,458,217a14.18,14.18,0,0,1-1.57.86c-.48.23-1,.49-1.64.74s-1.27.48-1.91.74-1.29.48-1.91.67c-.31.11-.62.17-.9.28s-.56.2-.81.29A14.54,14.54,0,0,1,447.56,221Z"/><path class="cls-27" d="M484.69,187.37c.24-2.37-5.58-1-7.12,0-5,3.32-1.84,13.3,6.17,13.3a9.11,9.11,0,0,1,3.56.95l3.32,5c1.9,2.85,3.56,5,6.41,6.65,3.92,2.14,9.32,4.84,11.05,5.08,1,.14.59,2.28.58,3.23,0,3.92-.58,7.66-.58,12.41,2.14,0,5.16.47,7.3,0,3.56-.48,3.24,3.26,3.48-.06.24-4.27-1.18-11.39-.7-15.67,12.58-1.42,21.61-11.87,20.42-24.93-.47-5.7-3.56-11.16-3.56-16.86,0-5.94.71-11.16-.71-17.33-1-4.75-2.85-10.21-6.89-13.06-6.88-5.22-16.86-4.51-24-.71s-14.25,6.17-17.81,13.77c-3.56,7.36-2.61,15-2.61,22.79Z"/><path d="M491.81,147.24c-5.22.71-8.78,2.14-12.11,7.83-2.61,5-2.85,11.16-2.14,16.62.71,4.51,2.61,11.16,5.46,14.48,5.22,6.41,4.51-6.88,4.27-10.21a22.26,22.26,0,0,0-1.42-6.88c7.84-.47,10.21-9.73,10-16.38,4.27-.47,8.78,1.66,13.3,1.66A35.1,35.1,0,0,0,523.86,151c2.14-.95,3.8-2.37,5.94-3.56,2.37-1.42,4.51-.95,6.89-2.14,1.42-.95,4.27-3.56,3.56-5.46-.71-2.14-4.51-1.19-6.41-.47,1.66-1.43,3.8-5.22,1.66-6.89-2.85-2.37-4.75,2.61-6.41,4.27-1.66-3.32-6.17-1.9-8.78-.48-4,2.14-5.94,2.85-10.92,2.61-8.55-.24-14.48-.95-17.09,8.55Z"/><path d="M497,165.76s0-.11.07-.3a2.12,2.12,0,0,1,.31-.72,3.25,3.25,0,0,1,.76-.88,2.25,2.25,0,0,1,.53-.38,6.23,6.23,0,0,1,.6-.32l.65-.2a2.62,2.62,0,0,1,.66-.08,1.88,1.88,0,0,1,.62,0,5.31,5.31,0,0,1,.54.13,2.32,2.32,0,0,1,.72.4,2.86,2.86,0,0,1,.23.19l-.31,0a6.55,6.55,0,0,0-.73,0,4.44,4.44,0,0,1-.45.07,2.86,2.86,0,0,0-.49.12,4.39,4.39,0,0,0-.51.14l-.51.19a5.23,5.23,0,0,0-.5.23,3,3,0,0,0-.48.24c-.15.09-.31.16-.46.24a4.42,4.42,0,0,1-.38.24,5.37,5.37,0,0,0-.62.43Z"/><path d="M522.2,162.67l.21-.16a3.08,3.08,0,0,1,.59-.34,3.86,3.86,0,0,1,.92-.29,3.11,3.11,0,0,1,.54-.07H525a4.42,4.42,0,0,1,1.09.23,3.13,3.13,0,0,1,.87.44,2.46,2.46,0,0,1,.51.47,2.57,2.57,0,0,1,.16.21h-.27c-.17,0-.38,0-.65-.06s-.54-.06-.85-.07-.63,0-.95-.07c-.64,0-1.31-.07-1.83-.13A6.1,6.1,0,0,1,522.2,162.67Z"/><path class="cls-12" d="M514.84,173.12l.22,1.43c0,.23.05.48.12.75l.25.85.28,1,.41,1a23.45,23.45,0,0,0,1,2.29c.38.8.85,1.63,1.28,2.51s.92,1.78,1.34,2.74.79,2,1.16,3a10.52,10.52,0,0,1,.67,3.26,1.83,1.83,0,0,1-.38,1,2.15,2.15,0,0,1-.82.58,6.3,6.3,0,0,1-1.58.4,15.8,15.8,0,0,1-2.9.16,18.12,18.12,0,0,1-2.58-.23,7.16,7.16,0,0,1-3.56-1.49,2.34,2.34,0,0,1-.43-.45,1.86,1.86,0,0,1-.26-.38l-.18-.33.23.3a3.37,3.37,0,0,0,.78.69,7.43,7.43,0,0,0,3.51,1,19.92,19.92,0,0,0,5.22-.29,5.37,5.37,0,0,0,1.3-.37c.38-.2.52-.35.55-.72a10.38,10.38,0,0,0-.66-2.82,30.46,30.46,0,0,0-1.08-2.87c-.4-.93-.81-1.86-1.23-2.74s-.81-1.76-1.14-2.61a24.07,24.07,0,0,1-.87-2.42c-.11-.38-.24-.74-.33-1.1l-.17-1-.15-.9c0-.28,0-.53,0-.76C514.84,173.65,514.84,173.12,514.84,173.12Z"/><path class="cls-53" d="M495.43,518.49l1-.66A3.53,3.53,0,0,0,495.43,518.49Z"/><path class="cls-54" d="M473.21,523.6c.79,3.56,7.47,2.92,10.76,2.1,2.37-.47,6.41-1.66,8.31-3.32,1.22-.87,1.93-2.75,3.15-3.88C488,523.22,478.92,527,473.21,523.6Z"/><path class="cls-55" d="M502,502.67l-7.36.24c-1.9,3.32-6.17,6.89-9,9.5-3.32,2.61-11.4,5.46-12.35,9.26a4.18,4.18,0,0,0-.08,1.94c5.7,3.44,14.79-.38,22.22-5.11a3.53,3.53,0,0,1,1-.66,75.53,75.53,0,0,0,7.3-5.47C503.88,509.12,503.66,504.92,502,502.67Z"/><path class="cls-54" d="M496.46,517.83a2.88,2.88,0,0,1,.58-.21c0,2.37,2.37,2.14,4.27,1.42,2.38-1.19,2.14-2.61,2.38-5.22,0-.46.06-1,.08-1.47A75.53,75.53,0,0,1,496.46,517.83Z"/><path class="cls-53" d="M521.47,518.49l-1-.66A3.53,3.53,0,0,1,521.47,518.49Z"/><path class="cls-54" d="M543.69,523.6c-.79,3.56-7.47,2.92-10.76,2.1-2.37-.47-6.41-1.66-8.31-3.32-1.22-.87-1.93-2.75-3.15-3.88C528.9,523.22,538,527,543.69,523.6Z"/><path class="cls-55" d="M514.89,502.67l7.36.24c1.9,3.32,6.17,6.89,9,9.5,3.32,2.61,11.4,5.46,12.35,9.26a4.2,4.2,0,0,1,.08,1.94c-5.7,3.44-14.79-.38-22.22-5.11a3.53,3.53,0,0,0-1-.66,75.51,75.51,0,0,1-7.3-5.47C513,509.12,513.25,504.92,514.89,502.67Z"/><path class="cls-54" d="M520.45,517.83a2.88,2.88,0,0,0-.58-.21c0,2.37-2.37,2.14-4.27,1.42-2.38-1.19-2.14-2.61-2.38-5.22,0-.46-.06-1-.08-1.47A75.51,75.51,0,0,0,520.45,517.83Z"/><path class="cls-7" d="M483.53,316v6.11c9.12,2.75,52.72,2.53,53.34-.3a9.22,9.22,0,0,0-.06-5.2S484.67,316,483.53,316Z"/><path class="cls-46" d="M490,316.27a7.24,7.24,0,0,1,.61,4.47,15.89,15.89,0,0,1-6.42,1.17c-1.88,7.15-1.28,15.31-1.25,22.61.06,12.91.57,25.81,1.17,38.71,1.24,26.87,3,53.71,5,80.54q.47,6.27,1,12.55c.11,1.38.3,2.77.34,4.15.11,4,2.86,8.76,2,12.57-.37,1.68-2.5,2.36-2.45,4.27.05,2.08,2,2.71,1.84,5.19-.09,2-1.79,2.46,0,4,1,.87,3.83.79,5.18,1,3,.44,8,2,8.87-2.26L503.79,345.9h9.36c-.28,16-.57,31.16-.85,46.72q-.67,36.89-1.34,73.79c-.17,9.49-.36,19-.79,28.45-.14,3.21-.46,7.76.63,10.7,1.25,3.38,4.94,2.8,8.56,2.75,3.4,0,7.51-.91,4.92-5.18,3.06-2.27-.71-2.94-1.27-4.59-.44-1.3.7-4.33.32-6.12a50.32,50.32,0,0,0,2.13-14.06c0-7.64,2-35.46,2-35.46L537.4,322l-4.86-1.25v-4.1l-5.7-.55v4.66L494.93,322v-5.69Z"/><path class="cls-47" d="M490.62,350l.33,3.08c.19,2,.5,4.76.8,8.12s.68,7.28,1,11.49l1,13.18.88,13.19c.28,4.21.46,8.15.66,11.52s.28,6.19.38,8.15l.11,3.1-.33-3.08c-.19-2-.5-4.76-.8-8.12s-.68-7.28-1-11.49l-1-13.18-.88-13.19c-.28-4.21-.46-8.15-.66-11.52s-.28-6.19-.38-8.15Z"/><path class="cls-47" d="M494.59,437.09l.21,1.79c.11,1.14.32,2.77.49,4.73s.39,4.25.57,6.7.35,5.07.52,7.68.29,5.24.38,7.69.15,4.75.21,6.72,0,3.61.07,4.75,0,1.8,0,1.8l-.22-1.79c-.11-1.14-.32-2.77-.49-4.73s-.4-4.25-.57-6.7-.35-5.07-.52-7.68-.28-5.24-.38-7.69-.15-4.75-.21-6.72,0-3.61-.07-4.76S494.59,437.09,494.59,437.09Z"/><path class="cls-47" d="M524.24,345.09s0,1.19.11,3.28.17,5.07.21,8.64.15,7.75.11,12.22-.12,9.24-.2,14c-.12,2.38-.23,4.77-.35,7.11s-.29,4.65-.46,6.89-.3,4.39-.57,6.43l-.67,5.74c-.11.89-.19,1.74-.31,2.55l-.38,2.29-.61,3.72-.55,3.23.33-3.26c.2-2.08.61-5,.88-8.59l.48-5.75c.2-2,.24-4.2.41-6.42s.31-4.53.38-6.87.18-4.72.27-7.1c.14-4.76.32-9.52.36-14s.17-8.64.24-12.21.16-6.56.21-8.64Z"/><path class="cls-47" d="M519.35,433.73l.12,2.4c0,1.53.16,3.72.22,6.34s.17,5.68.18,9,0,6.78.05,10.28-.18,7-.26,10.28c0,1.64-.08,3.22-.2,4.73s-.2,2.92-.29,4.23c-.17,2.62-.39,4.8-.51,6.32l-.22,2.4s0-.88,0-2.41,0-3.72.09-6.34c0-1.31.07-2.73.1-4.23s0-3.09,0-4.72l.11-10.26c0-3.5.07-7,.1-10.27s.13-6.34.17-9,.15-4.81.2-6.34S519.35,433.73,519.35,433.73Z"/><path class="cls-47" d="M493.68,500.67l.41.09c.26.05.62.2,1,.27.21,0,.43.09.66.15s.49.07.74.13c.51.12,1.07.13,1.61.21a13.4,13.4,0,0,0,1.6,0c.25,0,.51,0,.74-.05s.45-.09.66-.12a2.07,2.07,0,0,0,.56-.13l.44-.14.41-.11s-.1.11-.29.3-.21.21-.36.33a1.67,1.67,0,0,1-.53.35c-.21.11-.43.22-.68.33a4.59,4.59,0,0,1-.81.22,3.43,3.43,0,0,1-.89.13h-.93l-.91-.14a4.23,4.23,0,0,1-.86-.23,6,6,0,0,1-1.44-.66A4.35,4.35,0,0,1,494,501Z"/><path class="cls-47" d="M495.82,497.92l.21,0a1.78,1.78,0,0,0,.48,0c.15,0,.36-.08.56-.1s.43-.07.66-.13a7.89,7.89,0,0,1,1.35-.1,3,3,0,0,1,.71.09,2.39,2.39,0,0,1-.5.53,2.91,2.91,0,0,1-.61.37,3.18,3.18,0,0,1-.78.24,3.05,3.05,0,0,1-.85,0,2.07,2.07,0,0,1-.75-.28,1,1,0,0,1-.39-.37A2,2,0,0,1,495.82,497.92Z"/><path class="cls-47" d="M511.41,498.84l.36.14c.23.08.53.26.9.4.18.07.38.15.58.25s.43.15.65.26c.44.2.93.33,1.4.5a13.91,13.91,0,0,0,1.43.35c.23,0,.46.11.67.12s.42,0,.62.06a9.3,9.3,0,0,0,1,0l.39,0-.33.19a3.42,3.42,0,0,1-.95.39c-.21,0-.44.1-.68.14a3.77,3.77,0,0,1-.77,0,3.41,3.41,0,0,1-.83-.07l-.84-.18-.79-.31a4.28,4.28,0,0,1-.72-.38,6,6,0,0,1-1.16-.87,4.68,4.68,0,0,1-.66-.75C511.48,499,511.41,498.84,511.41,498.84Z"/><path class="cls-47" d="M514.46,496.39a3.12,3.12,0,0,1,.69-.39,2.86,2.86,0,0,1,.34-.13c.13,0,.22-.12.34-.16a4.57,4.57,0,0,1,.7-.27,5.19,5.19,0,0,1,.74-.27c.12,0,.25-.05.36-.09a2.58,2.58,0,0,1,.33-.1,3.61,3.61,0,0,1,.78-.11,2.75,2.75,0,0,1-.43.67,2.12,2.12,0,0,1-.59.53,6.8,6.8,0,0,1-.8.44,6.62,6.62,0,0,1-.93.19,1.77,1.77,0,0,1-.78,0A3.13,3.13,0,0,1,514.46,496.39Z"/><path class="cls-47" d="M508,320.94s.08.37.19,1,.27,1.59.42,2.72c.32,2.25.64,5.26.87,8.28s.36,6,.39,8.31c0,1.14,0,2.09,0,2.76s0,1.05,0,1.05-.08-.37-.19-1-.27-1.59-.42-2.71c-.32-2.25-.64-5.26-.87-8.29s-.36-6-.39-8.32c0-1.14,0-2.09,0-2.75S508,320.94,508,320.94Z"/><path class="cls-47" d="M511.71,319.41s.07.28.18.76l.45,2c.18.83.36,1.8.51,2.85a27.49,27.49,0,0,1,.27,3.34,14.6,14.6,0,0,1-.33,3.39,9,9,0,0,1-.48,1.52,6.73,6.73,0,0,1-.72,1.25,3.84,3.84,0,0,1-.84.88,3.29,3.29,0,0,1-.76.51c-.46.21-.72.31-.72.31s.22-.19.6-.49a3.07,3.07,0,0,0,.59-.63,4.93,4.93,0,0,0,.58-.92,9,9,0,0,0,.47-1.19,13.12,13.12,0,0,0,.29-1.42c.09-.49.1-1,.15-1.56s0-1.08,0-1.63c0-1.1-.07-2.21-.13-3.25s-.13-2-.16-2.87,0-1.56,0-2.06S511.71,319.41,511.71,319.41Z"/><path class="cls-47" d="M482.36,331l.49-.12a2.71,2.71,0,0,0,.51-.19,4.85,4.85,0,0,0,.59-.32,6.35,6.35,0,0,0,1.24-1.14c.22-.22.39-.51.6-.75s.39-.54.56-.84c.38-.56.71-1.17,1-1.73l.85-1.58c.49-.94.85-1.58.85-1.58a8.45,8.45,0,0,1-.24,1.8,11.85,11.85,0,0,1-1.54,3.71A8.09,8.09,0,0,1,485.9,330a4.76,4.76,0,0,1-.83.62,4.34,4.34,0,0,1-.84.4,3.12,3.12,0,0,1-.78.16,2.15,2.15,0,0,1-.6,0Z"/><path class="cls-47" d="M530.05,325.83a10,10,0,0,1,.77,1.05c.41.64.91,1.49,1.39,2.34.25.41.48.84.73,1.22.13.18.22.39.34.56s.23.33.33.49c.19.33.4.55.52.75s.2.31.2.31l-.34-.13a3.69,3.69,0,0,1-.84-.47,5.24,5.24,0,0,1-1-.91,8.28,8.28,0,0,1-.91-1.25,10.44,10.44,0,0,1-.64-1.39,8,8,0,0,1-.37-1.28A6.55,6.55,0,0,1,530.05,325.83Z"/><path class="cls-56" d="M557.5,295.23s0-.14.06-.37a3.32,3.32,0,0,1,.43-.92,5,5,0,0,1,.94-1.06,6.36,6.36,0,0,1,1.35-.89,7.29,7.29,0,0,1,.77-.31,5.65,5.65,0,0,1,.78-.2,4.3,4.3,0,0,1,1.44,0,2.67,2.67,0,0,1,1,.32c.21.12.32.2.32.2l-.37,0a5.15,5.15,0,0,0-.9.12c-.18,0-.37.09-.57.14s-.41.14-.62.2a12.82,12.82,0,0,0-1.3.56,15.25,15.25,0,0,0-2.32,1.37c-.3.23-.53.42-.7.58Z"/><path class="cls-56" d="M540.67,264.83s-.18-1-.3-2.47-.2-3.45-.18-5.42.14-3.93.3-5.41.36-2.45.36-2.45.18,1,.3,2.47.2,3.45.18,5.42-.14,3.93-.31,5.41S540.67,264.83,540.67,264.83Z"/><path class="cls-56" d="M485.65,262.84a16.52,16.52,0,0,1-.17-1.9,34.78,34.78,0,0,1,.1-4.14,35.17,35.17,0,0,1,.77-4.09,15.65,15.65,0,0,1,.56-1.81,16.86,16.86,0,0,1,.08,1.91,34.19,34.19,0,0,1-.28,4.1,35.38,35.38,0,0,1-.59,4.09A16.21,16.21,0,0,1,485.65,262.84Z"/><path class="cls-57" d="M448.2,252c3.42,0,5.79.18,8.5-1.27,3.08,10.32,6.87,21.17,9.23,31.85.73,3.62,1.9,8.33.27,11.76-1.45,3.08-4.66,8-8.64,5.25-2.53-2-3.05-7.78-3.78-10.68a78.84,78.84,0,0,1-2-12.85c-.36-4.16-1.08-8.33-1.62-12.49-.36-3.26-.84-8-2-10.86Z"/><path class="cls-56" d="M450.2,259.87l.43,0c.27,0,.67,0,1.11,0,.22,0,.46,0,.71,0s.51-.06.78-.06a5.12,5.12,0,0,0,.82-.1,8.4,8.4,0,0,0,.83-.15l.81-.22c.26-.09.52-.19.77-.29a4.27,4.27,0,0,0,.71-.31c.22-.12.44-.21.65-.3s.37-.21.54-.3l.43-.23.39-.19s-.08.13-.24.36-.18.25-.3.4a3.42,3.42,0,0,1-.43.49c-.18.16-.37.33-.59.5a3,3,0,0,1-.72.48,6.84,6.84,0,0,1-.84.42l-.93.29c-.32.08-.64.09-1,.14a4,4,0,0,1-.93,0,5,5,0,0,1-.86-.09c-.27-.05-.52-.12-.75-.18a5.8,5.8,0,0,1-1-.41Z"/><path class="cls-56" d="M545.19,319.41l.56.06a8.85,8.85,0,0,1,1.45.28,9.89,9.89,0,0,1,2,.76,6.47,6.47,0,0,1,2,1.52,5.63,5.63,0,0,1,1.19,2.25,6.05,6.05,0,0,1,.19,1.13,7.62,7.62,0,0,1,0,1,10.07,10.07,0,0,1-.26,2l-.12-.55-.27-1.42c-.06-.29-.13-.6-.21-.92s-.19-.64-.31-1a6.75,6.75,0,0,0-.46-.95,4.38,4.38,0,0,0-.63-.87,6.5,6.5,0,0,0-.77-.77c-.3-.21-.56-.47-.87-.64a18.83,18.83,0,0,0-1.71-1c-.52-.28-1-.51-1.29-.67Z"/><path class="cls-20" d="M510.81,240.39c.9,4.71-7.38,53.21-5.39,57.37,1.45,3.08,4.92,10.86,7.81,12.67a39.39,39.39,0,0,0,7.34-13.93c1.09-5.61-5.42-49.78-5.78-54.3a3.52,3.52,0,0,0-.18-1.45Z"/><path class="cls-56" d="M541.4,261s0,0,0,0a1.21,1.21,0,0,0,0-.14c0-.13.09-.31.16-.52a5.84,5.84,0,0,1,.74-1.43,4.85,4.85,0,0,1,1.17-1.15,2.28,2.28,0,0,1,.73-.34,5.32,5.32,0,0,1-.22.75,6.23,6.23,0,0,1-.76,1.41,5.13,5.13,0,0,1-1.15,1.16,2.26,2.26,0,0,1-.52.28.53.53,0,0,1-.18,0C541.39,261.05,541.4,261,541.4,261Z"/><path class="cls-56" d="M481.67,256.68a2.56,2.56,0,0,1,.67.22,4,4,0,0,1,1.13.81,3.7,3.7,0,0,1,.85,1,2.62,2.62,0,0,1,.25.65,2.42,2.42,0,0,1-.69-.16,4.23,4.23,0,0,1-1.23-.73,4,4,0,0,1-.77-1.15A2.54,2.54,0,0,1,481.67,256.68Z"/><path class="cls-12" d="M503.93,201.49s.28.18.74.52a7.35,7.35,0,0,0,.88.52c.32.2.76.35,1.18.55s.94.34,1.45.53,1.08.32,1.67.43l.89.19.92.13c.62.11,1.25.12,1.89.18a18.3,18.3,0,0,0,1.89,0,17.81,17.81,0,0,0,1.82-.17c.58-.1,1.15-.21,1.67-.34a12.47,12.47,0,0,0,1.45-.5,7.59,7.59,0,0,0,1.17-.57,4.75,4.75,0,0,0,.85-.55c.44-.35.71-.55.71-.55s-.19.26-.56.72a5,5,0,0,1-.76.73,5.48,5.48,0,0,1-1.12.8,8.82,8.82,0,0,1-1.47.72,13,13,0,0,1-3.69.8,18.73,18.73,0,0,1-2,0c-.67-.07-1.35-.1-2-.23a13.43,13.43,0,0,1-1.89-.44,15.38,15.38,0,0,1-1.71-.61,15,15,0,0,1-1.45-.75,8.18,8.18,0,0,1-1.13-.79,8,8,0,0,1-.79-.7C504.14,201.74,503.93,201.49,503.93,201.49Z"/><path d="M501.4,174.94c-2,0-2.17,3.62-.9,5.07,3.26,3.08,4.7-3.93,1.81-5.07Z"/><path d="M524.85,174.94c2,0,2.17,3.62.9,5.07-3.26,3.08-4.71-3.93-1.81-5.07Z"/><path d="M526,194.79a55,55,0,0,1-26.32-.39,47.08,47.08,0,0,0-1.55,12.34c0,5.07,1.45,7.35,5.79,10.07,5.61,3.44,20.54,2.8,23.17-3.55C528.62,209.58,528.15,194.31,526,194.79Zm0,13c-.33,3.83-4.09,6-8.71,6-.91-1.45,0-3.67-1-5.58-.18.36-1.16,1.42-1.16,2-.18-.36-1.09-1.27-1.27-1.63h-.18a19,19,0,0,0-.72,1.81c-.36-.54-1.45-1.27-1.81-1.81a41.85,41.85,0,0,0-.33,4.75v.5c-3.08,0-8.46-1.12-9.73-4.2-1.09-2.89-.44-9.74.83-12.45a42.2,42.2,0,0,0,11.58,2.12c2.71,0,11-1.85,11.4-1.94C525.88,197.14,526.22,205.66,526,207.77Z"/><path class="cls-33" d="M503.52,315.08a50.46,50.46,0,0,0,.34,7.69c3.81.08,16.18.2,16.43-.43s0-7-.06-7.39Z"/><path class="cls-58" d="M513.35,234.06c-3.44-.9-6,4.71-2.9,7.24,4.71,4.34,10-3.08,4.89-6.51Z"/><path class="cls-57" d="M508.1,226.64c-2.17-.54-5.43,3.26-6,5.61-1.27,5.07,3.62,8.51,7.06,11.22a105.9,105.9,0,0,0,5.07-10.13c-4.52-.18-6.17-1.34-6-6.33Z"/><path class="cls-57" d="M518.88,226.64c2.17-.54,5.43,3.26,6,5.61,1.27,5.07-3.62,8.51-7.06,11.22a105.9,105.9,0,0,1-5.07-10.13c4.53-.18,5.94-1.89,5.75-6.75Z"/><path class="cls-27" d="M536.46,326.08c1.62,1.51,3.94.46,5.45,2.32a17.7,17.7,0,0,1,4.17,7.3c.81,3.71-.81,7.53-3.13,10.43-1.39,1.74-4.75,7.53-7.42,5.68-3.36,2.09-4.29-2.09-2.32-4.17-1.39,2-3,1.51-2.9-.81,0-2,1.39-3.24,2.09-5-.46.93-2.2,3.24-3.59,2.2s.12-4.29.58-5.33a21.67,21.67,0,0,1,2.9-4.75c1.27-1.39,3.25-2.67,4.06-4.4Z"/><path class="cls-12" d="M532.17,342.11a14.24,14.24,0,0,1,.76-1.6,16.36,16.36,0,0,1,.92-1.54c.37-.54.8-1.1,1.22-1.66s.83-1.09,1.25-1.58c.19-.26.43-.47.59-.72s.34-.46.5-.67a14.74,14.74,0,0,1,1.16-1.33,13.42,13.42,0,0,1-.6,1.67c-.1.25-.22.52-.35.79a5.63,5.63,0,0,1-.48.83c-.35.56-.76,1.15-1.18,1.71s-.87,1.07-1.31,1.55-.83,1-1.2,1.33A14.24,14.24,0,0,1,532.17,342.11Z"/><path class="cls-12" d="M532.48,348.44a19.34,19.34,0,0,1,1.09-1.83c.7-1.06,1.7-2.41,2.73-3.73l1.49-1.93c.49-.61.91-1.2,1.29-1.7s.67-.93.9-1.23l.36-.47s-.05.21-.16.57a9.53,9.53,0,0,1-.54,1.46,14.41,14.41,0,0,1-1,1.94,24.6,24.6,0,0,1-1.42,2.06c-.54.66-1.07,1.32-1.61,1.9s-1.05,1.11-1.52,1.55C533.16,347.91,532.48,348.44,532.48,348.44Z"/><path class="cls-12" d="M534.88,352.24a13.41,13.41,0,0,1,1-1.4c.16-.2.33-.42.53-.63s.33-.49.53-.73c.35-.51.76-1,1.15-1.53a36.33,36.33,0,0,1,2.28-2.91,13.27,13.27,0,0,1,1.2-1.23,13.37,13.37,0,0,1-.66,1.59,15.8,15.8,0,0,1-.82,1.54c-.32.55-.71,1.12-1.09,1.69s-.9,1.08-1.35,1.55a5.25,5.25,0,0,1-.67.65c-.23.18-.45.34-.66.49A13.44,13.44,0,0,1,534.88,352.24Z"/></svg>